<svg id="Слой_1" data-name="Слой 1" xmlns="http://www.w3.org/2000/svg" viewBox="0 0 1935.95 1475.48"><defs><style>.cls-1{fill:none;stroke:#e8e8e8;stroke-miterlimit:10;stroke-width:0.5px;opacity:0.3;}</style></defs><title>bglightWhite</title><path class="cls-1" d="M-3.8,77.63c91.65,1.64,184.11-8,275.48,3.79,16.13,2.15,32.25,2.15,48.38-1.08q19.35-2.82,38.56-4.55t38.31-2.6q22-1.18,44-2.13c14.66-.63,29.32-1.18,44-1.73,129.71-10.49,258.72,2.41,387.28,7.94,14.62-.07,29.25-.12,43.91-.39,25.7-1.95,51.38-3.82,77.07-5.42l6.42-.39c63.1,2.82,127.6-5.78,191.56,2.46,1.83.39,3.65.8,5.47,1.21,14.58,3.32,29.23,7,44.52,9.9,25.8,4.52,49.67.13,73.42-4.75l5.93-1.22c27.16-3.25,54.47-4.65,81.85-5.38l6.32-.16c70.07,5.06,141,.76,211,1.35l6,.28q24.12,1.2,48.27,2.47h270.55"/><path class="cls-1" d="M-3.34,215.21C96.45,223.55,195.36,207.43,295,203c12.89-.82,25.77-1.87,38.62-3.22,12.7-1.44,25.39-2.94,38.08-4.33,14.28-1.57,28.58-3,42.9-4.06s28.7-1.79,43.13-2.14q17.72,0,35.44.43T528.66,191c95.64,1.42,189.16,18.62,284.78,13.68q21.49-.22,43-.28,19.11,0,38.22.13c65.05.79,131.7-2.44,197.28-6.74,71-3.22,141.9,9.68,212.51,5.92,11.94-.9,23.87-2.18,35.79-3.55,35.78-4.25,71.52-9.35,107.54-12,32.25-2.15,64.5,0,96.75,4.3,46.23,6.45,91.38,14,137.73,14.46,17.65.16,34.63.16,50.85.16h211.41"/><path class="cls-1" d="M-.22,272c96.56,4.7,193.32-5,290.36-13.22,11.15-.65,22.29-1.31,33.44-2.12s22.27-1.77,33.4-2.91c11.4-1.27,22.79-2.57,34.19-3.74s22.79-2.2,34.21-3,22.86-1.33,34.33-1.53c31.85-.4,63.39.57,94.86,2.27q15.73.84,31.45,1.91c54.29,3.37,108.05,8.74,161.85,11.57,11.88.16,23.8-.09,35.84-.57s24.17-.9,36.24-1.29c24.16-.77,48.29-1.21,72.49-.8q23.17.15,46.38.53c107.86.38,215.36-2.85,322.87,5.75,11.82,1.08,22.57,0,34.4-2.17q20.55-2.81,40.8-5.23c94.52-11.27,184.82-15,281.71.95,18.27,3.23,35.48,3.23,53,2.9,9.73,0,19.5-.19,29.26-.32,29.3-.4,58.58.16,87.59,2.89q11.43,0,22.17,0h137.05"/><path class="cls-1" d="M-3.29,337.13c90.07,3.07,180.37-9.83,270.67-8.71q14.12.74,28.06.81c27.91.15,55.53-1.65,83.75-4,9.31-.73,18.63-1.5,27.95-2.22a791,791,0,0,1,86.27-7q21.57-.63,43.14-.38c57.65-.1,114.62,6.35,172.54,9q21.57,1.45,43.14,2.7c16.12,1.07,33.32-1.08,49.48-1.33,13.25-.84,26.46-2.16,39.7-3.47s26.52-2.6,39.82-3.81c20.43-1.07,40.85,1.08,61.66,2.13,9.35.73,18.69,1.65,28,2.61s18.67,2,28,2.94c12.44,1.28,24.89,2.53,37.34,3.56,43.84,8.12,91.14-5.86,133.89,12,13.43,5,26.59,11.19,40,16.56,18.82,7,36.55,4,53.89-2,8.67-3,17.23-6.83,25.79-10.56,96.63-32.58,204.13-18.6,305.19-17.53,23.65,0,47.3-8.6,70.8-10q17.76-1.75,35.51-1.76a360.71,360.71,0,0,1,106.09,16.18q10.74,0,20.73,0h116.33"/><path class="cls-1" d="M-3.29,371.93c91.14-1.63,181.45-5.93,272.82-6.48q22.79.24,45.57.36t45.54,0q20.24-.13,40.45-.57c57.65-2.44,115.7-16.41,173.75-15.34C652.25,352,728.58,366,806.26,363.45c12.85-.73,25.67-2,38.51-3.32s25.71-2.6,38.61-3.81C921,352,958.63,357.4,996,362q14.38,1.67,28.75,3.14c28.74,2.9,57.46,4.94,86.4,4.72h17.42c31.12,1.5,55.84,19.78,85.94,27.3,21.5,5.38,41.12.54,60.31-6.52,9.59-3.53,19.07-7.62,28.63-11.27,67.62-17.54,137.51-14.76,207.52-12.56l6.36.19c8.72.06,17.32.06,26.23.71l6,.12c22,.4,44,.36,65.93-.77,10.75-1.07,21.5-4.3,32.17-7.87a236,236,0,0,1,40-4.19c40-.91,79.75,7,119.78,14.79q10.74.07,20.73.06h116.33"/><path class="cls-1" d="M-.44,504.43c121.43,17.78,242.91,7,364.1-1.45q15.38,0,31.19.07c15.33-1.26,31.45-.19,46.5,2,57.52,11.83,115.57,15.59,173.7,14.86l6.46-.09c74.59,4.55,147.69-10.5,221.94-15.64l5.82-.31c36.85-1.88,73.79-2.59,110.9-1.31,13.81.17,27.63.35,41.46.35,11.91.08,23.83.08,35.73.09H1191q18.42,0,37,0t37.31,0c50,1.92,99-5.44,148.35-11.4l6.17-.74q3.16-.79,6.33-1.52t6.35-1.38c63.37-8.67,129-3.29,192.06,6.84l4.44.55c8.89,1.1,17.78,2.17,26.68,3.15,97.16,9.85,195,18.45,292.12,9.91"/><path class="cls-1" d="M-3.57,573.88c121.52,19.79,243,9,364.18-2,10.26-.07,20.66,0,31.2.07,62.63-1.91,119.61,22.82,182,28.19a202.56,202.56,0,0,0,28.49,1.08c7.76-.48,15.45-1.22,23.07-2.15,1.91-.23,3.81-.47,5.72-.72,71.5-7.88,142.45-27.23,215.43-26.14l6.22-.24c24.87-.9,49.81-.92,74.81.14,11.83,0,23.66.09,35.5,0s23.68-.16,35.53-.41h113q19.23,0,38.34,0,43,.21,86.08.27,21.51,0,43,0c14,1.2,29-.95,43-.95,43.1-3.17,85.82-10.45,128.83-14.57L1457,556q6.16-.63,12.35-1.1,3.11-.24,6.19-.44c33.31-.52,65.56-1.6,99,3.76,2,.29,4.07.59,6.1.9l5.59.69c14.87,1.88,29.67,3.91,44.5,5.74,9.89,1.23,19.79,2.37,29.74,3.51,94.75,9.6,189.35,23.58,284.49,10.8"/><path class="cls-1" d="M-3.48,671.52c45.54,5.28,91.08,7.36,136.61,7.58q22.78.1,45.56-.32c107,1.43,215.55-19,320.65,9.36,8.91,1.89,17.84,3.76,26.83,5.52s18,3.39,27.17,4.83c24.73,3.22,47.31,4.3,72,2.15,28.42-2.8,56-8.62,83.49-14.4l6.34-1.33c28.2-5.77,55.08-12.22,82.73-13.31,2.15-.16,4.3-.31,6.46-.43q6.47-.36,13-.45,19-.08,38.12-.1h178.83c11.92,0,23.83,0,35.72.13a1686.52,1686.52,0,0,0,203.54,11.12q20.34-.09,40.67-.61c55-1,108.8-10.72,163.63-15,48.37-3.59,96,.3,143.95,2.83,9.59.51,19.19,1,28.82,1.3,98.14,5.54,197,35.64,295,14"/><path class="cls-1" d="M-3.1,720.37c30.34,2,60.68,3.15,91,3.79q22.75.48,45.52.57C232.2,727.11,330,725,428.93,726c31.17,0,62.35,8.6,93.09,11.88q21.9,2.19,43.6,3c72.42,2.68,143.89-5.72,219.15-19.16,10.75-2.15,22.57-1.08,32.89-1.48l38.12,0h178.83c11.92,0,23.83.06,35.75.34a1508.33,1508.33,0,0,0,284.85,11.06q20.32-1.11,40.69-2.83c70.35-12.14,141-10.43,212.21-9.16q21.36.38,42.78.72c98.19,3.55,197.09,34.73,295.13,12.46"/><path class="cls-1" d="M-3.26,781.6c69.61-.33,140.56-3.56,210,7.29,12.18,1.43,24.35,2.89,36.53,4.22,36.53,4,73.08,7,110.17,4.28,53.75-3.22,106.43-8.6,159.58-10.25,14.72-.18,29.51.12,44.31.36q111.09,1.86,222.19-5.62h220.81l36.66,0c72.2-1.71,142.08,11.19,214.1,15.49,25.81,1.08,52.68,0,78.48-2.15,53.75-4.3,105.36-14,159.46-13.34l31.27,0h106.17c11.19,0,22.16.06,32.93.25,12,.29,24,.8,35.9,1.45s23.89,1.42,35.81,2.29c71.48,5.07,143.51,13.67,214.35,3.45"/><path class="cls-1" d="M-2,852.51c80.15-3.52,157.55-2.44,238.18,15.83,9.67,2.15,19.35,4.3,28.71,3.7,14.6,1,29.13,1.41,43.61,1.5,72.39.46,143.36-8.24,216.16-16.91,11.47-.47,23.09-.54,34.81-.57h492.69q16.77,0,33.49,0c76.14,5.81,152.46,6.89,229.3,5.57q19.08-.3,38.17-.83,57.25-1.56,114.6-4.76h208.51c29.91.15,59.76,1.2,89.6,2.3,14.91.55,29.82,1.12,44.73,1.55,44.63,2,88.7.9,134.32-1.94"/><path class="cls-1" d="M-.59,923.33c79.84-6.61,157.24.92,236.8,11.67,17.2,2.15,33.32,4.3,49.6,4.3q19.92.6,39.89.72t40-.31q19.88-.29,39.73-1c39.73-1.41,79.45-4.14,119.21-8.46q17.28,0,34.9,0h80c69.77.47,138.58.47,208.76,0q21.28,0,42.68,0h85.7c15.88.06,31.76.12,47.59.54,114,9.6,226.86,5.3,341.23-.3q21.28-.13,42.5-.23h290c18.75,0,36.67,0,53.68-.15,64.87-.46,129.38-9.06,193.43-7.13"/><path class="cls-1" d="M-.68,997.82c95-6.92,189.59-1.55,284.12,4.19,14,.48,28.13.89,42.22,1.31,28.2.83,56.4,1.76,84.59,2.54q20-.21,40-.59t40-.86h34.28q21.24,0,42.95.05c118,6.86,235.22,10.09,353.64,0,12.69-.5,25.36-.54,38-.24,63.26,1.51,126.12,11.22,189.73,15.69,61.27,3.23,120.4-7.52,181.68-12.9,19.35-1.07,39.77-3.22,58.6-2.48l31.09-.13H1688.7c61.16.46,121.36-9.21,182.64-14.59,24.73-1.07,49.45-3.22,74.46-1.25"/><path class="cls-1" d="M7.5,1054.73c93.24-3.16,186.77-12.83,280.29-6.38,11.83.53,23.63,1.19,35.4,1.91,58.87,3.57,117.18,8.58,175.92,7.29h31.67c19.32.47,38.68-1.68,59.1,2.62,120.41,21.5,231.13,17.2,351.54-1.07,12.9-2.15,25.8-1.08,38.79-1.14q20.46,2.76,40.94,5,23,2.47,46.07,4.26t46.1,2.86c31.28,2,61.38,2,92.35,1.56q23.11-.31,46.27-1.31,69.46-3,139.35-12.26c11.77-.29,23.42-.36,35-.47,90.32,1.55,179.55,1.55,270.22.06,9.77,0,19.32,0,28.66-.13,77.4-1.61,152.66-24.18,230.58-18.11"/><path class="cls-1" d="M-3.32,1152.7c48.17,1.6,95.47-7,143.85-11.3,29-3.22,57-3.22,86.2-3q19,.24,38,1c63.17,2.63,125.81,9.23,189.82,13.28h66.59c12.87.48,24.7-.6,37.6,1.55C649,1170.43,741.48,1178,833.56,1169q23.06-2,46.48-5.39t47.42-8.2c15-3.23,29-2.15,43.12-2.56q15,.09,30,.79c101.06,11.44,203.19,16.82,304.09,2,12.86-.87,25.71-1.62,38.55-2.12s25.67-.76,38.52-.53a1804.18,1804.18,0,0,0,225.6,8.48q22.53-.57,45.09-1.75,18.07-2.43,36.21-4.35t36.33-3.4c73.3-6.26,146.4-20.23,220.58-11.31"/><path class="cls-1" d="M-3.35,1264c13.05-.19,26-1,39-2.2s25.89-2.82,38.78-4.72c101.58-29.68,200.48-17.86,304.76,3.64,12.9,3.23,24.72,3.23,36.62,3.23,11.63.06,23.43.06,35.37.06s24.05,0,36.29.08c60.5-.14,119.63,13.83,179.83,17.06,73.1,3.22,145.13-9.68,218.31-14q23.28-1.29,46.53-3.05c123.5,8.57,244.7,15.52,368.8,5.07q20.68-1.74,41.48-4.15c8.6,0,18.28-2.15,26.88-1.07,64.5,5.37,127.51,19.71,192.14,20.6,12.92.18,25.91-.18,39-1.25,10.75,0,22.58-2.15,33.33-5.38,39.1-10.48,78.06-19,117-24.44q19.44-2.71,38.87-4.38c51.66-4.5,104.34-2.35,155.53,7.71"/><path class="cls-1" d="M-3.34,1338.11c27.32-.52,54.15-4.28,81.14-8.85,9-1.52,18-3.13,27.06-4.74,78.67-20.79,159.3-9,237.39,5.42,12.59,1.93,25.2,3.73,37.85,5.19s25.34,2.57,38.1,3.15a383.36,383.36,0,0,0,38.5-.09,259.57,259.57,0,0,1,57.94,3.17c131.16,24.73,253.71,7.53,381-3,10.86-.07,21.74-.11,32.62-.2,61.51,1,122.79,9.62,184.06,12.85,71.67,3.58,141.85-7,213.23-11.25,14.28-.84,28.61-1.43,43-1.54,69.69,9.62,139.47,12,209.46,10.79,14-.24,28-.63,42.06-1.27,108.24-12.86,215.75-39.73,325-15.77"/><path class="cls-1" d="M-3.36,1412.36s5.4,0,15.65-.12c41.16.07,80.94-6.38,121.79-11.75,88.15-12.9,172,7.52,257.8,11.61,10.51.17,21.18.22,32,.26h29c9.76.05,19.62.09,29.55.32,129,14.68,258,16.83,387.1.27,11.29-.41,22.57-.51,33.87-.59H938c11.58.07,23.17.15,34.79.42,124.48,11.36,248.11,6,373.13-.32l32.1-.1c72.46,2,145,4,217.67,3.66q21.81-.11,43.64-.5c101.89-7.51,203-15,305.36-4.93"/></svg>