<svg id="Слой_1" data-name="Слой 1" xmlns="http://www.w3.org/2000/svg" viewBox="0 0 22.8 22.8"><defs><style>.cls-1{fill:none;stroke:#f46300;stroke-width:1.35px;}.cls-2{isolation:isolate;}.cls-3{fill:#f46300;}</style></defs><title>first</title><circle class="cls-1" cx="11.4" cy="11.4" r="10.6"/><g class="cls-2"><path class="cls-3" d="M8.8,13.72a2.18,2.18,0,0,0,2.34,1.8h.15a2,2,0,0,0,2.27-1.94,2,2,0,0,0-2.16-1.95h-.87V10.4h.92a1.94,1.94,0,0,0,2-1.94,2,2,0,0,0-2.19-2h-.16A2.1,2.1,0,0,0,9,8.35H7.61a3.43,3.43,0,0,1,3.66-3.09c2,0,3.65,1.29,3.61,3A2.84,2.84,0,0,1,14.36,10,2.8,2.8,0,0,1,13,11a2.71,2.71,0,0,1,1.42.93A2.63,2.63,0,0,1,15,13.65c0,1.84-1.68,3.15-3.76,3.12S7.61,15.62,7.4,13.72Z"/></g></svg>