<svg width="227" height="86" viewBox="0 0 227 86" fill="none" xmlns="http://www.w3.org/2000/svg">
<path d="M71.34 11.7598H74.88V50.6398H64.75V33.3598L56.5 41.9998H55.39L47.19 33.3598V50.6398H37.05V11.7598H40.71L55.89 28.5998L71.34 11.7598ZM70.12 46.8198V21.1198H69.34L55.89 35.2998L42.59 21.1198H41.87V46.8198H42.42V21.8398L55.88 36.1298L69.56 21.8398V46.8198H70.12V46.8198Z" fill="black"/>
<path d="M103.96 41.9501V50.6501H84.3V41.9501H89.23V20.5101H84.69V11.8701H103.58V20.5101H99.04V41.9501H103.96ZM88.01 46.0501V46.6001H100.2V46.0501H94.44V16.5201H99.76V15.9701H88.51V16.5201H93.88V46.0401H88.01V46.0501Z" fill="black"/>
<path d="M123.46 31.5902V50.6402H113.21V11.7002H116.81L136.42 30.8702V11.8702H146.56V50.7002H143.01L123.46 31.5902ZM117.92 46.8202H118.58V20.6202C122.46 24.3302 126.33 28.1502 130.1 31.8602C133.81 35.5202 137.52 39.1202 141.34 42.8302H141.78V15.6302H141.17V41.8802C137.29 38.0602 133.47 34.2402 129.54 30.5802C125.94 26.9302 122.23 23.2702 118.52 19.6702H117.91V46.8202H117.92Z" fill="black"/>
<path d="M178.83 45.7701H163.54L161.27 50.6501H151.58V49.2001L169.03 11.3701H173.29L190.79 49.2001V50.6401H181.1L178.83 45.7701ZM171.29 17.0201H170.96L157.17 46.8701H157.89L160.49 41.3901H181.92L184.47 46.8701H185.19L171.29 17.0201ZM160.71 40.7801H181.7L171.18 18.2401H171.12L160.71 40.7801ZM175.23 36.8501H167.14L171.13 27.9301L175.23 36.8501Z" fill="black"/>
<g opacity="0.99">
<g opacity="0.99">
<path opacity="0.99" d="M7.00999 73.5002L5.22999 70.2802H3.81999V73.5002H1.89999V64.4502H6.12999C8.01999 64.4502 9.16999 65.6802 9.16999 67.3702C9.16999 68.9702 8.15999 69.8302 7.18999 70.0602L9.21999 73.5102H7.00999V73.5002ZM7.19999 67.3702C7.19999 66.6102 6.61999 66.1502 5.83999 66.1502H3.81999V68.5902H5.83999C6.61999 68.5902 7.19999 68.1302 7.19999 67.3702Z" fill="black"/>
</g>
</g>
<g opacity="0.99">
<g opacity="0.99">
<path opacity="0.99" d="M13.91 64.4502H11.98V73.5002H13.91V64.4502Z" fill="black"/>
</g>
</g>
<g opacity="0.99">
<g opacity="0.99">
<path opacity="0.99" d="M16.45 72.2293L17.49 70.7693C18.13 71.4293 19.12 71.9893 20.37 71.9893C21.43 71.9893 21.94 71.4993 21.94 70.9893C21.94 69.3893 16.73 70.4893 16.73 67.0793C16.73 65.5693 18.03 64.3193 20.16 64.3193C21.6 64.3193 22.79 64.7493 23.69 65.5793L22.62 66.9893C21.89 66.3093 20.91 65.9993 19.99 65.9993C19.16 65.9993 18.7 66.3693 18.7 66.9093C18.7 68.3493 23.9 67.3793 23.9 70.7593C23.9 72.4093 22.72 73.6593 20.28 73.6593C18.54 73.6693 17.29 73.0793 16.45 72.2293Z" fill="black"/>
</g>
</g>
<g opacity="0.99">
<g opacity="0.99">
<path opacity="0.99" d="M28.47 73.5002V66.1502H25.83V64.4502H33.04V66.1502H30.41V73.5002H28.47Z" fill="black"/>
</g>
</g>
<g opacity="0.99">
<g opacity="0.99">
<path opacity="0.99" d="M34.88 68.9798C34.88 66.2498 36.88 64.2998 39.6 64.2998C42.34 64.2998 44.34 66.2498 44.34 68.9798C44.34 71.7098 42.35 73.6598 39.6 73.6598C36.87 73.6698 34.88 71.7098 34.88 68.9798ZM42.36 68.9798C42.36 67.2798 41.27 66.0098 39.6 66.0098C37.93 66.0098 36.86 67.2898 36.86 68.9798C36.86 70.6598 37.93 71.9498 39.6 71.9498C41.27 71.9598 42.36 70.6698 42.36 68.9798Z" fill="black"/>
</g>
</g>
<g opacity="0.99">
<g opacity="0.99">
<path opacity="0.99" d="M52.17 73.5002L50.39 70.2802H48.98V73.5002H47.05V64.4502H51.28C53.17 64.4502 54.32 65.6802 54.32 67.3702C54.32 68.9702 53.31 69.8302 52.34 70.0602L54.37 73.5102H52.17V73.5002ZM52.36 67.3702C52.36 66.6102 51.78 66.1502 51 66.1502H48.98V68.5902H51C51.78 68.5902 52.36 68.1302 52.36 67.3702Z" fill="black"/>
</g>
</g>
<g opacity="0.99">
<g opacity="0.99">
<path opacity="0.99" d="M63.38 73.5002L62.82 71.9702H58.94L58.37 73.5002H56.17L59.67 64.4502H62.09L65.58 73.5002H63.38ZM60.88 66.3802L59.47 70.2802H62.29L60.88 66.3802Z" fill="black"/>
</g>
</g>
<g opacity="0.99">
<g opacity="0.99">
<path opacity="0.99" d="M74.02 73.5002L69.7 67.6002V73.5002H67.78V64.4502H69.76L73.95 70.1402V64.4502H75.88V73.5002H74.02Z" fill="black"/>
</g>
</g>
<g opacity="0.99">
<g opacity="0.99">
<path opacity="0.99" d="M81.12 73.5002V66.1502H78.47V64.4502H85.69V66.1502H83.06V73.5002H81.12Z" fill="black"/>
</g>
</g>
<g opacity="0.99">
<g opacity="0.99">
<path opacity="0.99" d="M88.28 73.5002V64.4502H94.69V66.1502H90.21V68.0602H94.6V69.7602H90.21V71.8102H94.69V73.5002H88.28Z" fill="black"/>
</g>
</g>
<g opacity="0.99">
<g opacity="0.99">
<path opacity="0.99" d="M99.1 70.4798C98.2 70.4798 97.48 69.7598 97.48 68.8798C97.48 67.9798 98.2 67.2598 99.1 67.2598C100 67.2598 100.71 67.9798 100.71 68.8798C100.72 69.7598 100 70.4798 99.1 70.4798Z" fill="black"/>
</g>
</g>
<g opacity="0.99">
<g opacity="0.99">
<path opacity="0.99" d="M105.7 64.4502H103.77V73.5002H105.7V64.4502Z" fill="black"/>
</g>
</g>
<g opacity="0.99">
<g opacity="0.99">
<path opacity="0.99" d="M110.94 73.5002V66.1502H108.29V64.4502H115.51V66.1502H112.88V73.5002H110.94Z" fill="black"/>
</g>
</g>
<g opacity="0.99">
<g opacity="0.99">
<path opacity="0.99" d="M123.48 73.5002L122.92 71.9702H119.04L118.47 73.5002H116.27L119.77 64.4502H122.19L125.68 73.5002H123.48ZM120.98 66.3802L119.57 70.2802H122.39L120.98 66.3802Z" fill="black"/>
</g>
</g>
<g opacity="0.99">
<g opacity="0.99">
<path opacity="0.99" d="M127.88 73.5002V64.4502H129.8V71.8102H133.63V73.5002H127.88Z" fill="black"/>
</g>
</g>
<g opacity="0.99">
<g opacity="0.99">
<path opacity="0.99" d="M135.53 68.9798C135.53 66.2498 137.53 64.2998 140.25 64.2998C142.99 64.2998 144.98 66.2498 144.98 68.9798C144.98 71.7098 142.99 73.6598 140.25 73.6598C137.52 73.6698 135.53 71.7098 135.53 68.9798ZM143.01 68.9798C143.01 67.2798 141.92 66.0098 140.25 66.0098C138.58 66.0098 137.51 67.2898 137.51 68.9798C137.51 70.6598 138.58 71.9498 140.25 71.9498C141.92 71.9598 143.01 70.6698 143.01 68.9798Z" fill="black"/>
</g>
</g>
<g opacity="0.99">
<g opacity="0.99">
<path opacity="0.99" d="M149.25 70.4798C148.35 70.4798 147.63 69.7598 147.63 68.8798C147.63 67.9798 148.35 67.2598 149.25 67.2598C150.15 67.2598 150.86 67.9798 150.86 68.8798C150.87 69.7598 150.15 70.4798 149.25 70.4798Z" fill="black"/>
</g>
</g>
<g opacity="0.99">
<g opacity="0.99">
<path opacity="0.99" d="M153.92 73.5002V64.4502H155.85V71.8102H159.67V73.5002H153.92Z" fill="black"/>
</g>
</g>
<g opacity="0.99">
<g opacity="0.99">
<path opacity="0.99" d="M164.31 64.4502H162.38V73.5002H164.31V64.4502Z" fill="black"/>
</g>
</g>
<g opacity="0.99">
<g opacity="0.99">
<path opacity="0.99" d="M167.45 73.5002V64.4502H172.21C173.93 64.4502 174.81 65.5502 174.81 66.7602C174.81 67.9002 174.1 68.6602 173.25 68.8402C174.21 68.9902 174.99 69.9302 174.99 71.0702C174.99 72.4302 174.08 73.5102 172.36 73.5102H167.45V73.5002ZM172.85 67.1002C172.85 66.5302 172.44 66.1102 171.79 66.1102H169.37V68.0802H171.79C172.45 68.0802 172.85 67.6702 172.85 67.1002ZM173.03 70.7902C173.03 70.2202 172.62 69.7302 171.86 69.7302H169.38V71.8302H171.86C172.59 71.8302 173.03 71.4402 173.03 70.7902Z" fill="black"/>
</g>
</g>
<g opacity="0.99">
<g opacity="0.99">
<path opacity="0.99" d="M184.05 73.5002L183.49 71.9702H179.61L179.04 73.5002H176.84L180.34 64.4502H182.76L186.25 73.5002H184.05ZM181.55 66.3802L180.14 70.2802H182.96L181.55 66.3802Z" fill="black"/>
</g>
</g>
<g opacity="0.99">
<g opacity="0.99">
<path opacity="0.99" d="M194.69 73.5002L190.38 67.6002V73.5002H188.45V64.4502H190.43L194.62 70.1402V64.4502H196.55V73.5002H194.69Z" fill="black"/>
</g>
</g>
<g opacity="0.99">
<g opacity="0.99">
<path opacity="0.99" d="M199.7 73.5002V64.4502H206.1V66.1502H201.63V68.0602H206.01V69.7602H201.63V71.8102H206.1V73.5002H199.7Z" fill="black"/>
</g>
</g>
<g opacity="0.99">
<g opacity="0.99">
<path opacity="0.99" d="M208.36 72.2293L209.4 70.7693C210.04 71.4293 211.03 71.9893 212.28 71.9893C213.34 71.9893 213.85 71.4993 213.85 70.9893C213.85 69.3893 208.64 70.4893 208.64 67.0793C208.64 65.5693 209.94 64.3193 212.07 64.3193C213.51 64.3193 214.7 64.7493 215.6 65.5793L214.53 66.9893C213.8 66.3093 212.82 65.9993 211.9 65.9993C211.07 65.9993 210.61 66.3693 210.61 66.9093C210.61 68.3493 215.81 67.3793 215.81 70.7593C215.81 72.4093 214.63 73.6593 212.19 73.6593C210.45 73.6693 209.2 73.0793 208.36 72.2293Z" fill="black"/>
</g>
</g>
<g opacity="0.99">
<g opacity="0.99">
<path opacity="0.99" d="M218.47 73.5002V64.4502H224.87V66.1502H220.4V68.0602H224.78V69.7602H220.4V71.8102H224.87V73.5002H218.47Z" fill="black"/>
</g>
</g>
</svg>
