<svg id="Слой_1" data-name="Слой 1" xmlns="http://www.w3.org/2000/svg" viewBox="0 0 22.8 22.8"><defs><style>.cls-1{isolation:isolate;}.cls-2{fill:#f46300;}.cls-3{fill:none;stroke:#f46300;stroke-width:1.35px;}</style></defs><title>second</title><g class="cls-1"><path class="cls-2" d="M15,15.3v1.32H7.56V15.11l3.91-3.81.34-.33c.4-.37.7-.68.91-.92a2.62,2.62,0,0,0,.73-1.75,1.87,1.87,0,0,0-2-1.79h-.16A2.12,2.12,0,0,0,9.1,8.74H7.67a3.45,3.45,0,0,1,3.68-3.48c2,0,3.55,1.17,3.52,3a3.34,3.34,0,0,1-.3,1.42,5.14,5.14,0,0,1-.77,1.17c-.3.34-.72.76-1.23,1.25L9.21,15.3Z"/></g><circle class="cls-3" cx="11.4" cy="11.4" r="10.6"/></svg>