<svg width="205" height="111" viewBox="0 0 205 111" fill="none" xmlns="http://www.w3.org/2000/svg">
<g clip-path="url(#clip0)">
<g clip-path="url(#clip1)">
<path d="M96.7586 2.26724C94.6132 2.26724 92.8611 1.84209 90.0005 0.283203L89.8575 0.566638C92.289 2.55068 94.8993 6.12904 95.9005 36.6691C96.7587 61.6468 97.9029 102.603 97.9029 104.304C97.9029 106.713 97.0447 107.882 95.9005 107.882C94.8993 107.882 94.0411 107.315 93.755 104.304C93.469 100.442 87.9981 14.8446 87.8551 11.2663C87.569 2.55068 83.3854 0.283203 78.3437 0.283203C73.1589 0.283203 71.7286 2.40896 71.5856 6.83762C71.4425 10.9829 71.8716 52.3643 71.4425 76.8814C71.0134 105.402 68.2601 108.697 65.9717 110.681L66.1147 110.964C69.011 109.405 70.7274 108.98 73.0159 108.98C75.5904 108.98 77.4855 109.547 80.4891 110.964L80.6321 110.681C77.7358 108.272 75.3043 106.252 75.0183 77.0231C74.7322 52.1871 73.874 9.24682 73.874 7.26278C73.874 4.9953 74.3031 3.68442 75.5904 3.68442C76.7346 3.68442 77.5928 4.25129 77.7358 6.97934C77.7358 8.39651 83.6357 101.292 83.7788 103.134C84.0648 109.122 86.5321 110.823 92.289 110.823C97.1877 110.823 100.048 109.405 100.048 104.41C100.048 99.4144 99.3332 43.1881 99.3332 36.9171C99.6192 4.67643 102.086 2.65697 104.518 0.531208L104.411 0.283203C101.371 1.55866 99.512 2.26724 96.7586 2.26724Z" fill="black"/>
<path d="M57.3184 27.3869C57.3184 21.1159 61.2159 15.5535 61.2159 9.10537C61.2159 2.83439 55.602 0.248047 46.6627 0.248047C37.5804 0.248047 32.3956 2.79896 32.3956 9.10537C32.3956 15.5181 36.2931 21.0805 36.2931 27.3869C36.2931 42.0901 30.8223 48.2193 30.8223 55.1989C30.8223 62.0367 35.864 69.1935 35.864 83.5778C35.864 89.8487 31.1083 94.1357 31.1083 100.123C31.1083 108.272 37.1513 110.823 46.6627 110.823C56.4602 110.823 62.5032 108.272 62.5032 100.123C62.5032 94.1357 57.7474 89.8487 57.7474 83.5778C57.7474 69.158 62.7892 62.0367 62.7892 55.1989C62.7892 48.2193 57.3184 42.0901 57.3184 27.3869ZM52.7057 104.162C52.7057 107.741 50.8463 108.874 46.6627 108.874C42.6221 108.874 40.9058 107.741 40.9058 104.162C40.9058 99.1666 45.0894 91.6202 45.0894 83.3298C45.0894 65.0482 33.2895 64.6231 33.2895 55.376C33.2895 45.8101 45.5185 41.3815 45.5185 27.7058C45.5185 19.4153 41.3349 11.8689 41.3349 6.87333C41.3349 3.43668 42.9082 2.30295 46.6627 2.30295C50.5602 2.30295 52.2766 3.43668 52.2766 6.87333C52.2766 11.8689 48.093 19.4153 48.093 27.7058C48.093 41.4169 60.322 45.8101 60.322 55.376C60.322 64.6585 48.5221 65.0837 48.5221 83.3298C48.5221 91.6202 52.7057 99.1666 52.7057 104.162Z" fill="black"/>
<path d="M199.74 81.6286C198.167 53.8166 195.556 9.56541 195.413 7.43965C195.127 3.29442 193.268 0.318359 188.941 0.318359C185.044 0.318359 184.043 1.59381 183.471 8.00652C183.184 11.7266 181.611 53.5332 180.896 77.7668C179.18 105.437 177.285 108.874 174.996 110.716L175.139 110.999C177.892 109.582 179.466 109.015 181.325 109.015C183.328 109.015 184.364 110.716 186.796 110.716C189.835 110.716 192.553 109.015 195.592 109.015C198.918 109.015 201.492 109.441 205.247 110.999L205.39 110.716C203.066 108.874 201.313 105.721 199.74 81.6286ZM189.8 91.3362C189.657 105.331 188.226 109.299 186.617 109.299C184.615 109.299 183.292 105.721 183.435 87.4744H189.764V91.3362H189.8ZM189.8 85.455H183.471C183.614 84.8881 183.614 84.3212 183.614 83.7544H189.8V85.455V85.455ZM183.614 81.7703C184.186 58.0681 185.33 9.14025 185.473 7.8648C185.616 4.00301 186.188 3.29442 187.189 3.29442C188.191 3.29442 188.62 3.86129 188.62 4.99503C188.763 10.5574 189.335 54.348 189.764 81.7703H183.614Z" fill="black"/>
<path d="M19.1655 44.6761C13.9807 44.6761 11.2274 49.8134 9.65407 55.6592C8.50984 59.9461 7.36561 62.4971 5.75654 62.4971C4.6123 62.4971 3.89716 61.505 3.89716 59.0604C3.89716 51.3723 13.6946 43.0818 13.6946 30.5398C13.6946 18.5647 8.65287 11.5497 8.65287 5.8456C8.65287 3.57813 9.36801 2.26724 10.5122 2.26724C12.0856 2.26724 12.9437 4.25129 14.4098 9.1051C16.4122 16.0847 19.1655 27.8118 20.3097 40.9206H21.3109C20.8818 35.0748 20.8818 27.0678 20.8818 18.1041C20.8818 10.8411 22.1691 4.95987 24.6363 0.42492L24.3503 0.283203C23.2061 1.41694 22.0618 1.84209 20.8818 1.84209C17.5564 1.84209 13.8377 0.283203 9.22498 0.283203C4.18322 0.283203 0.142653 2.83411 0.142653 9.14053C0.142653 14.9864 4.18322 20.1236 4.18322 28.6975C4.18322 42.9755 1.75173 49.9551 1.75173 58.1038C1.75173 63.0994 3.46807 64.6582 5.64926 64.6582C8.68863 64.6582 10.1189 61.3633 11.5492 56.2261C12.8365 51.2305 14.3025 49.5299 16.0189 49.5299C16.877 49.5299 17.4491 50.0968 17.4491 51.7974C17.4491 58.9187 10.8341 66.0754 10.9771 80.4951C10.9771 91.4782 21.0606 97.0406 21.0606 103.028C21.0606 107.315 18.4861 108.874 15.8758 108.874C13.1225 108.874 11.6922 107.032 10.2619 102.036C7.97348 93.8874 4.64806 81.3454 2.93172 66.6423H1.859C2.28809 73.1967 2.8602 79.4677 2.8602 89.4588C2.8602 99.4498 1.71597 106.429 -0.0361328 110.716L0.249925 110.858C1.39416 109.724 2.53839 109.299 3.71837 109.299C7.04379 109.299 10.6195 110.858 15.3752 110.858C20.56 110.858 24.7436 106.571 24.7436 99.7333C24.7436 94.3126 20.56 91.0176 20.56 81.4517C20.56 67.5989 25.3157 58.777 25.3157 50.77C25.3515 45.8099 23.3133 44.6761 19.1655 44.6761Z" fill="black"/>
<path d="M174.96 0.141717L174.674 0C173.673 1.13374 172.528 1.84232 171.205 1.84232C168.917 1.84232 166.164 0.283434 162.552 0.283434C160.693 0.283434 158.512 1.84232 155.508 1.84232C152.326 1.84232 150.037 0.283434 148.321 0.283434C144.566 0.283434 141.849 1.84232 139.668 1.84232C138.237 1.84232 137.093 1.13374 136.199 0L135.913 0.141717C137.486 4.7121 138.488 12.4003 138.809 23.0999C138.523 41.0626 138.237 52.0811 137.808 63.7727H138.809C140.812 41.3814 144.137 21.3993 146.14 9.14076C146.855 4.14523 147.427 2.16119 148.893 2.16119C150.037 2.16119 150.752 3.15321 150.752 7.15672V74.2244C150.752 105.19 149.036 108.768 146.569 110.752L146.712 111.035C150.037 109.618 152.326 109.051 155.222 109.051H155.651C158.547 109.051 160.836 109.618 164.161 111.035L164.304 110.752C161.873 108.768 160.121 105.19 160.121 74.2244V7.12129C160.121 3.11778 160.836 2.12576 161.98 2.12576C163.267 2.12576 163.983 4.1098 164.733 9.10533C166.736 21.3639 169.918 41.346 172.064 63.7373H173.065C172.493 52.0456 172.207 41.0626 172.064 23.0645C172.242 12.4003 173.244 4.7121 174.96 0.141717Z" fill="black"/>
<path d="M130.335 81.6289C128.726 53.7815 126.151 9.56568 126.008 7.40449C125.722 3.25926 123.863 0.283203 119.536 0.283203C115.639 0.283203 114.637 1.55866 114.065 7.97136C113.779 11.6914 112.206 53.498 111.491 77.7317C109.774 105.402 107.879 108.839 105.591 110.681L105.734 110.964C108.487 109.547 110.06 108.98 111.92 108.98C113.922 108.98 114.959 110.681 117.391 110.681C120.43 110.681 123.148 108.98 126.187 108.98C129.512 108.98 132.087 109.405 135.841 110.964L135.984 110.681C133.624 108.874 131.908 105.721 130.335 81.6289ZM120.394 91.3365C120.251 105.331 118.821 109.299 117.212 109.299C115.21 109.299 113.887 105.721 114.03 87.4747H120.359V91.3365H120.394ZM120.394 85.4552H114.065C114.208 84.8884 114.208 84.3215 114.208 83.7546H120.394V85.4552ZM114.208 81.7706C114.78 58.0684 115.925 9.14053 116.068 7.86507C116.211 4.00328 116.783 3.29469 117.784 3.29469C118.785 3.29469 119.214 3.86156 119.214 4.9953C119.357 10.5577 119.929 54.3483 120.359 81.7706H114.208Z" fill="black"/>
</g>
</g>
<defs>
<clipPath id="clip0">
<rect width="205" height="111" fill="white"/>
</clipPath>
<clipPath id="clip1">
<rect width="357" height="111" fill="white"/>
</clipPath>
</defs>
</svg>
