<svg xmlns="http://www.w3.org/2000/svg" viewBox="0 0 841.89 595.28"><defs><style>.cls-1,.cls-2{fill:#1d1d1b;}.cls-2{stroke:#1d1d1b;stroke-miterlimit:10;stroke-width:0.25px;}</style></defs><g id="Слой_3" data-name="Слой 3"><path class="cls-1" d="M240,411a7,7,0,0,1,5.74-3.08,4,4,0,0,1,3.12,1.36,5.08,5.08,0,0,1,1.22,3.5,9.65,9.65,0,0,1-2.57,6.43,7.47,7.47,0,0,1-5.73,3,4.57,4.57,0,0,1-3.61-1.48,6.17,6.17,0,0,1-1.31-4.21v-4.39a23.79,23.79,0,0,1-2.93,5.24l-.85-.79a39.11,39.11,0,0,0,2.71-5,24.34,24.34,0,0,0,1.07-2.55V398.15a14,14,0,0,1,2.2-8.2q2.19-3.13,5.07-3.13a3.09,3.09,0,0,1,2.39,1,3.82,3.82,0,0,1,.92,2.64,15.89,15.89,0,0,1-1.69,6.06A120.08,120.08,0,0,1,240,407.29Zm0-6.13a74.77,74.77,0,0,0,4.35-8.57,13.86,13.86,0,0,0,1-4.85,3.92,3.92,0,0,0-.62-2.31,1.88,1.88,0,0,0-1.61-.88,2.59,2.59,0,0,0-2.3,1.67,9.77,9.77,0,0,0-.86,4.44Zm0,12.16q0,3.9,2.63,3.9a4.28,4.28,0,0,0,3.3-1.88,6.81,6.81,0,0,0,1.51-4.42,5.18,5.18,0,0,0-1-3.33,3.05,3.05,0,0,0-2.52-1.21,3.49,3.49,0,0,0-2.88,1.33A5.21,5.21,0,0,0,240,413Zm14.21-.06a11.45,11.45,0,0,1-8.59,5.72l-.23-.68a12.93,12.93,0,0,0,7.91-5.74Z"/><path class="cls-1" d="M275.22,416.46q-3.14,5.13-6,5.57v9.32a8.23,8.23,0,0,1-2.15,5.8,7,7,0,0,1-5.35,2.34,7.62,7.62,0,0,1-3.6-.94,6.64,6.64,0,0,1-2.75-2.6l2.46-2.76.41.38a7.5,7.5,0,0,0-.12,1.12,3.26,3.26,0,0,0,1.19,2.46,4.12,4.12,0,0,0,2.88,1.08,3.37,3.37,0,0,0,2.89-1.42,6.64,6.64,0,0,0,1-4V416.46a28.94,28.94,0,0,1-3.81,4.65,4.22,4.22,0,0,1-2.75,1.24c-1.88,0-2.82-1-2.82-3.07v-6.89a26.22,26.22,0,0,1-2.87,5l-.85-.79a30.39,30.39,0,0,0,3.72-7.41l3.14-1.55v11.54c0,.68.27,1,.82,1H261q1.08,0,5.13-6.11v-4.91l3.1-1.55V420.3c1.33-.11,3-1.64,5-4.57Z"/><path class="cls-1" d="M318.9,382.92a8.11,8.11,0,0,1-3.28,2.89,9.3,9.3,0,0,1-4.33,1.18,20.36,20.36,0,0,1-5.77-1.2,21.3,21.3,0,0,0-4.78-1.2,4.58,4.58,0,0,0-3.47,1.55,5.3,5.3,0,0,0-1.45,3.75,4.77,4.77,0,0,0,1.33,3.5,9.2,9.2,0,0,0,3.31,2.14c1.32.52,3.37,1.17,6.17,2a52.74,52.74,0,0,1,6.74,2.24,11.21,11.21,0,0,1,4.32,3.28,8.83,8.83,0,0,1,1.77,5.73,12.67,12.67,0,0,1-4.35,9.43,16.46,16.46,0,0,1-20.48,1.06,9.13,9.13,0,0,1-3.85-7.33,6.82,6.82,0,0,1,2.25-5.22,8.23,8.23,0,0,1,5.83-2.1,9.87,9.87,0,0,1,6.35,2.07,6.1,6.1,0,0,1,2.59,4.9,4.15,4.15,0,0,1-1.33,3.18,4.54,4.54,0,0,1-3.21,1.25,5,5,0,0,1-4.63-2.87l.73-.41a3.39,3.39,0,0,0,2.46,1.14,3.15,3.15,0,0,0,2.39-1,3.54,3.54,0,0,0,1-2.54,3.92,3.92,0,0,0-1.59-3.18,6,6,0,0,0-3.86-1.27,5.66,5.66,0,0,0-4.38,1.93,6.7,6.7,0,0,0-1.74,4.63,7.65,7.65,0,0,0,3.12,6.1,12,12,0,0,0,7.87,2.55,11.83,11.83,0,0,0,8.44-3.19,10,10,0,0,0,3.36-7.46,7.06,7.06,0,0,0-1.56-4.75,10,10,0,0,0-3.75-2.72,56.24,56.24,0,0,0-6.08-2,58.92,58.92,0,0,1-6.08-2,9.58,9.58,0,0,1-3.66-2.64,6.68,6.68,0,0,1-1.48-4.51,8.55,8.55,0,0,1,3-6.55,10.11,10.11,0,0,1,7-2.74,20.92,20.92,0,0,1,5.27,1,22.15,22.15,0,0,0,5,.94,5.78,5.78,0,0,0,4.34-2Z"/><path class="cls-1" d="M344.89,417c-2.23,3.48-4.4,5.22-6.53,5.22a2.11,2.11,0,0,1-1.73-.65,4.76,4.76,0,0,1-.56-2.69,11.45,11.45,0,0,1-3,2.82,5.73,5.73,0,0,1-2.77.66,4.48,4.48,0,0,1-3.59-1.55,6.15,6.15,0,0,1-1.33-4.16v-1.26c-.22.27-.72,1-1.5,2.11l-1-.67a26,26,0,0,1,5.43-6.26c1.91-1.51,3.57-2.27,5-2.27a5.69,5.69,0,0,1,3,.91l2.58-1.32v10a6.65,6.65,0,0,0,.15,1.91c.1.21.36.32.79.32a3.15,3.15,0,0,0,1.67-1,17.48,17.48,0,0,0,2.43-2.84Zm-8.88-.35v-5.89a3.8,3.8,0,0,0-2.82-1.2,4.15,4.15,0,0,0-3.18,1.64,6,6,0,0,0-1.41,4.07,4.83,4.83,0,0,0,1,3.27,3.44,3.44,0,0,0,2.74,1.16,3.33,3.33,0,0,0,2.51-1.34C335.63,417.47,336,416.89,336,416.64Z"/><path class="cls-1" d="M343.6,416.82c.37-.53.71-1,1-1.48a18.27,18.27,0,0,0,.92-1.59,21.73,21.73,0,0,0,1-2.34,6.82,6.82,0,0,0,.58-1.92V398.15a12,12,0,0,1,2.63-7.58q2.64-3.4,5.51-3.4a2.93,2.93,0,0,1,2.39,1.05,4.35,4.35,0,0,1,.86,2.82,15.63,15.63,0,0,1-1.93,6.31,119.44,119.44,0,0,1-6.53,11.12v8.46a13.63,13.63,0,0,0,.14,2.48.73.73,0,0,0,.76.66q1.32,0,4.25-3.84l.91.76q-3.48,5.22-6.91,5.22a1.84,1.84,0,0,1-1.56-.69,6,6,0,0,1-.52-3.15V413a18.23,18.23,0,0,1-2.64,4.51Zm6.48-10.49a87.62,87.62,0,0,0,5.17-9.36,13.25,13.25,0,0,0,1.24-5.06c0-2.18-.67-3.28-2-3.28a3.68,3.68,0,0,0-3.12,2.08,10.79,10.79,0,0,0-1.27,5.66Z"/><path class="cls-1" d="M354.82,416.82q3.81-5.44,6.24-7a9.17,9.17,0,0,1,5.1-1.59,5.65,5.65,0,0,1,4,1.35,4.88,4.88,0,0,1,1.45,3.76,8.81,8.81,0,0,1-2.76,6.27,8.65,8.65,0,0,1-6.41,2.83,5.1,5.1,0,0,1-3.79-1.42,4.9,4.9,0,0,1-1.43-3.62,11.29,11.29,0,0,1,.18-2.11,27.66,27.66,0,0,0-1.61,2.29Zm9.52,3.66a4.36,4.36,0,0,0,3.55-1.61,6.55,6.55,0,0,0,1.32-4.28A5.07,5.07,0,0,0,368,411a4.27,4.27,0,0,0-3.26-1.3,4.2,4.2,0,0,0-3.41,1.55,6.66,6.66,0,0,0-1.27,4.34Q360,420.48,364.34,420.48ZM374.92,417a13.6,13.6,0,0,1-4.42,4.41,12.24,12.24,0,0,1-4.16,1.31l-.24-.68a12.44,12.44,0,0,0,7.85-5.74Z"/><path class="cls-1" d="M395,417q-3.54,5.22-6.77,5.22a2,2,0,0,1-1.61-.69,5.7,5.7,0,0,1-.56-3.15v-6.71c0-1-.32-1.55-1-1.55a1.73,1.73,0,0,0-1,.35,5.71,5.71,0,0,0-1.09,1,27.19,27.19,0,0,0-1.66,2.28,9.91,9.91,0,0,0-1.07,1.78v5.27l-2.93,1.88v-9.85a18.88,18.88,0,0,1-2.75,4.69l-.91-.73a22,22,0,0,0,3.72-7.5l2.87-1.38v5.45a20.81,20.81,0,0,1,3.46-4.16,4.28,4.28,0,0,1,2.66-1.06,2.29,2.29,0,0,1,1.91.88c.45.59.67,2,.67,4.34v3.92a12.47,12.47,0,0,0,.13,2.17.68.68,0,0,0,.72.59q1.44,0,4.25-3.84Z"/><path class="cls-1" d="M410.54,417a12.18,12.18,0,0,1-3.77,4.09,10.13,10.13,0,0,1-5.4,1.27,5.13,5.13,0,0,1-3.85-1.45,5.57,5.57,0,0,1-1.42-4.08,10.07,10.07,0,0,1,.12-1.5c-.7.9-1.24,1.62-1.61,2.17l-1-.67a39.6,39.6,0,0,1,5.86-7.08,6.61,6.61,0,0,1,4.22-1.68,2.84,2.84,0,0,1,2,.7,2.36,2.36,0,0,1,.77,1.82q0,3.81-6.71,7.5c.61,1.4,1.87,2.11,3.78,2.11a6.17,6.17,0,0,0,3.06-1,10.2,10.2,0,0,0,3.07-2.9Zm-11.33-.06q4.86-2.37,4.86-5.27a2.14,2.14,0,0,0-.48-1.44,1.66,1.66,0,0,0-1.31-.55,3.08,3.08,0,0,0-2.52,1.37,5.44,5.44,0,0,0-1,3.32,6.11,6.11,0,0,0,.23,1.78A6.12,6.12,0,0,1,399.21,416.93Z"/><path class="cls-1" d="M430.94,411.07q3-3,5.83-3a4.41,4.41,0,0,1,3.58,1.58,6.27,6.27,0,0,1,1.34,4.19,8.56,8.56,0,0,1-2.19,5.83,6.47,6.47,0,0,1-5,2.49,5.78,5.78,0,0,1-3.6-1.2v11.28a7.48,7.48,0,0,1-1.94,5.46,6.34,6.34,0,0,1-4.71,2,5.18,5.18,0,0,1-4.58-2.52l2.41-2.37.5.41a2.41,2.41,0,0,0-.21.85,2.71,2.71,0,0,0,.72,1.88,2.31,2.31,0,0,0,1.8.81q2.9,0,2.9-5.83v-20a21.74,21.74,0,0,1-2.75,4.63l-.85-.73a23.59,23.59,0,0,0,3.6-7.44l3.11-1.56Zm0,8.38a4.91,4.91,0,0,0,3.54,1.44,4.05,4.05,0,0,0,3.24-1.64,6.29,6.29,0,0,0,1.33-4.1,4.74,4.74,0,0,0-1.16-3.37,3.81,3.81,0,0,0-2.94-1.26,4.85,4.85,0,0,0-4,2.46ZM446.11,417a11.43,11.43,0,0,1-8.55,5.72l-.27-.68a13,13,0,0,0,7.94-5.74Z"/><path class="cls-1" d="M466.82,417q-3.33,5.22-6.53,5.22a2.11,2.11,0,0,1-1.73-.65,4.77,4.77,0,0,1-.55-2.69,11.62,11.62,0,0,1-3,2.82,5.7,5.7,0,0,1-2.77.66,4.48,4.48,0,0,1-3.59-1.55,6.2,6.2,0,0,1-1.33-4.16v-1.26c-.21.27-.71,1-1.49,2.11l-1-.67a25.78,25.78,0,0,1,5.44-6.26q2.85-2.26,5-2.27a5.73,5.73,0,0,1,3,.91l2.58-1.32v10a7.27,7.27,0,0,0,.14,1.91c.1.21.36.32.79.32a3.15,3.15,0,0,0,1.67-1,17,17,0,0,0,2.44-2.84Zm-8.87-.35v-5.89a3.83,3.83,0,0,0-2.83-1.2,4.14,4.14,0,0,0-3.17,1.64,6,6,0,0,0-1.41,4.07,4.83,4.83,0,0,0,1,3.27,3.41,3.41,0,0,0,2.73,1.16,3.36,3.36,0,0,0,2.52-1.34C457.56,417.47,458,416.89,458,416.64Z"/><path class="cls-1" d="M472.42,407.47a9.07,9.07,0,0,1,3.66,3.43,8.62,8.62,0,0,1,1.38,4.54,7.41,7.41,0,0,1-1.6,4.75,5,5,0,0,1-4.08,2,5.53,5.53,0,0,1-2.67-.82,7.41,7.41,0,0,1-2.49-2.41,7.54,7.54,0,0,1,2.64-2.4l.23.3a4.38,4.38,0,0,0-.06.84,3.28,3.28,0,0,0,.88,2.25,2.61,2.61,0,0,0,2,1,2.69,2.69,0,0,0,2.24-1.16,4.64,4.64,0,0,0,.88-2.91q0-3.64-4.31-6.48l-2.49,3.93a34.33,34.33,0,0,1-2.17,3.22l-.9-.73A79.25,79.25,0,0,0,471.48,406l.71,0Zm10,9.52q-3.13,5.16-7.91,5.6l-.18-.56a9.08,9.08,0,0,0,3.59-1.65,21.81,21.81,0,0,0,3.62-4.09Z"/><path class="cls-1" d="M495.51,416.9q-3.31,5.31-7,5.31c-1.17,0-1.9-.28-2.19-.83a5.93,5.93,0,0,1-.44-2.67v-7a61.87,61.87,0,0,1-3.84,5.79l-1-.69c.73-1.07,1.35-2,1.86-2.8s1.13-1.85,1.86-3.14a12,12,0,0,0,1.11-2.18v-12l2.93-2.87v11.12l4.5-7.06,1.15.86-5.65,8.91v9a14.37,14.37,0,0,0,.17,2.75.88.88,0,0,0,1,.69q2,0,4.75-3.93Z"/><path class="cls-1" d="M516.22,417q-3.35,5.22-6.53,5.22a2.1,2.1,0,0,1-1.73-.65,4.76,4.76,0,0,1-.56-2.69,11.45,11.45,0,0,1-3,2.82,5.73,5.73,0,0,1-2.77.66,4.47,4.47,0,0,1-3.59-1.55,6.15,6.15,0,0,1-1.33-4.16v-1.26c-.22.27-.72,1-1.5,2.11l-1-.67a25.76,25.76,0,0,1,5.43-6.26q2.85-2.26,5-2.27a5.69,5.69,0,0,1,3,.91l2.58-1.32v10a6.65,6.65,0,0,0,.15,1.91c.09.21.36.32.79.32a3.15,3.15,0,0,0,1.67-1,17.48,17.48,0,0,0,2.43-2.84Zm-8.88-.35v-5.89a3.8,3.8,0,0,0-2.82-1.2,4.15,4.15,0,0,0-3.18,1.64,6,6,0,0,0-1.41,4.07,4.83,4.83,0,0,0,1,3.27,3.44,3.44,0,0,0,2.74,1.16,3.33,3.33,0,0,0,2.51-1.34C507,417.47,507.34,416.89,507.34,416.64Z"/><path class="cls-1" d="M548.42,402.37a2.55,2.55,0,0,1,1.43,2.3,2.18,2.18,0,0,1-.7,1.66,2.61,2.61,0,0,1-1.88.67,13.24,13.24,0,0,1-3.25-.57,16.77,16.77,0,0,0-2.93-.66,7,7,0,0,1,2.76,5.54,10,10,0,0,1-3.64,7.6,12.22,12.22,0,0,1-8.49,3.3,11,11,0,0,1-8-3.2,10.36,10.36,0,0,1-3.26-7.7,9.75,9.75,0,0,1,2.15-6.33,11.79,11.79,0,0,1,6.25-3.81q-6.46-1.73-6.47-6.06a7.26,7.26,0,0,1,3.05-5.77,11.11,11.11,0,0,1,7.2-2.46,24.46,24.46,0,0,1,5.16.73,25.12,25.12,0,0,0,4.34.7,6.13,6.13,0,0,0,3.34-.94l.49.76a8.14,8.14,0,0,1-6.06,2.64,15,15,0,0,1-5-1.13,14.44,14.44,0,0,0-4.37-1.15,4.44,4.44,0,0,0-3.53,1.63,6.24,6.24,0,0,0-1.39,4.18,5.17,5.17,0,0,0,1.72,4.1,6.8,6.8,0,0,0,4.67,1.51,11,11,0,0,0,3-.38l.17,1q-5.38.67-8.21,3.51a9.83,9.83,0,0,0-2.83,7.24,9,9,0,0,0,2.65,6.74,8.72,8.72,0,0,0,6.34,2.61,8.06,8.06,0,0,0,5.86-2.39,8,8,0,0,0,2.43-5.93,6.71,6.71,0,0,0-1.27-4.3,4.21,4.21,0,0,0-3.47-1.59,4.1,4.1,0,0,0-2.82.95,3.14,3.14,0,0,0-1.08,2.47,2.06,2.06,0,0,0,.6,1.57A2.18,2.18,0,0,0,535,412a2.62,2.62,0,0,0,2-.93l.35.82c-.9,1.71-2,2.57-3.25,2.57a3,3,0,0,1-2.31-1,3.58,3.58,0,0,1-1-2.56,5.13,5.13,0,0,1,2.31-4.36,10.84,10.84,0,0,1,6.45-1.67l5.68.29c2,0,3-.52,3-1.55a.94.94,0,0,0-.26-.68Z"/><path class="cls-1" d="M560.78,411a7,7,0,0,1,5.74-3.08,4,4,0,0,1,3.12,1.36,5.08,5.08,0,0,1,1.22,3.5,9.65,9.65,0,0,1-2.57,6.43,7.45,7.45,0,0,1-5.72,3,4.59,4.59,0,0,1-3.62-1.48,6.17,6.17,0,0,1-1.31-4.21v-4.39a23.79,23.79,0,0,1-2.93,5.24l-.84-.79a41.77,41.77,0,0,0,2.71-5,25.41,25.41,0,0,0,1.06-2.55V398.15a14,14,0,0,1,2.2-8.2q2.2-3.13,5.07-3.13a3.08,3.08,0,0,1,2.39,1,3.82,3.82,0,0,1,.92,2.64,16,16,0,0,1-1.68,6.06q-1.69,3.78-5.76,10.75Zm0-6.13a71.53,71.53,0,0,0,4.35-8.57,13.86,13.86,0,0,0,1-4.85,3.92,3.92,0,0,0-.62-2.31,1.87,1.87,0,0,0-1.61-.88,2.61,2.61,0,0,0-2.3,1.67,9.77,9.77,0,0,0-.86,4.44Zm0,12.16q0,3.9,2.64,3.9a4.25,4.25,0,0,0,3.29-1.88,6.81,6.81,0,0,0,1.51-4.42,5.18,5.18,0,0,0-1-3.33,3.05,3.05,0,0,0-2.52-1.21,3.49,3.49,0,0,0-2.88,1.33,5.44,5.44,0,0,0-1.07,1.6ZM575,417a11.45,11.45,0,0,1-8.59,5.72l-.23-.68a12.93,12.93,0,0,0,7.91-5.74Z"/><path class="cls-1" d="M595.61,417q-3.33,5.22-6.53,5.22a2.11,2.11,0,0,1-1.73-.65,4.76,4.76,0,0,1-.56-2.69,11.45,11.45,0,0,1-3,2.82,5.7,5.7,0,0,1-2.77.66,4.48,4.48,0,0,1-3.59-1.55,6.2,6.2,0,0,1-1.33-4.16v-1.26c-.21.27-.71,1-1.49,2.11l-1-.67a26,26,0,0,1,5.43-6.26c1.91-1.51,3.57-2.27,5-2.27a5.73,5.73,0,0,1,3,.91l2.58-1.32v10a6.82,6.82,0,0,0,.14,1.91c.1.21.36.32.79.32a3.15,3.15,0,0,0,1.67-1,17,17,0,0,0,2.43-2.84Zm-8.87-.35v-5.89a3.83,3.83,0,0,0-2.83-1.2,4.14,4.14,0,0,0-3.17,1.64,6,6,0,0,0-1.42,4.07,4.88,4.88,0,0,0,1,3.27,3.44,3.44,0,0,0,2.74,1.16,3.33,3.33,0,0,0,2.51-1.34C586.35,417.47,586.74,416.89,586.74,416.64Z"/><path class="cls-1" d="M610,417q-3.32,5.22-6.65,5.22t-3.43-3.9q0-3.17,3-6.88a11.06,11.06,0,0,1-1.88.11,5.24,5.24,0,0,1-1.84-.35,31.48,31.48,0,0,1-4,6.36l-.91-.73a46.69,46.69,0,0,0,4.81-9.06,11.35,11.35,0,0,0,4.42,1.32,3.48,3.48,0,0,0,2.64-1.2l.5.35a23.59,23.59,0,0,0-2.9,4.5,11.47,11.47,0,0,0-1.09,5,2.64,2.64,0,0,0,.56,1.6,1.57,1.57,0,0,0,1.24.75,3.22,3.22,0,0,0,2.15-.91,18.21,18.21,0,0,0,2.44-2.87Z"/></g><g id="Слой_4" data-name="Слой 4"><path class="cls-1" d="M227,362.9a8.43,8.43,0,0,0,5.08-3.08,4.52,4.52,0,0,0,.74-3.46c0-.69.19-75.87,0-85.24-.12-6.54-4-8.94-6.47-9.81,3.95,0,12.72-.13,18-.13h1.83c-4.06,1.36-4.69,6-4.69,6.1l0,1.65c-.52,72.51-.52,72.51-.16,87.33.09,4,3.88,5.87,6.37,6.64Z"/><path class="cls-1" d="M244.33,261.43H245c-3.22,1.79-3.75,5.76-3.76,5.81v.06l0,1.7c-.52,72.45-.52,72.45-.16,87.29.08,3.48,2.81,5.37,5.19,6.36H228.57a7.64,7.64,0,0,0,3.69-2.69,4.85,4.85,0,0,0,.79-3.59c0-2.44.18-76,0-85.25-.11-5.76-3.06-8.38-5.5-9.57,4.33-.05,12-.12,16.78-.12m0-.5c-7,0-20.05.15-20.05.15s8.09.57,8.27,10.05,0,85.3,0,85.3,1.44,5.5-8.27,6.72H249.8s-8.12-1.06-8.26-6.88c-.37-14.94-.36-14.8.18-89,0,0,.71-5.87,6.29-6.23,1.85-.11-.16-.15-3.68-.15Z"/><path class="cls-1" d="M520.47,362.71a8.51,8.51,0,0,0,5.12-3.1,4.47,4.47,0,0,0,.74-3.44c0-.7.19-75.87,0-85.25-.12-6.54-4-8.94-6.51-9.81,4,0,12.8-.13,18.12-.13h1.84c-4.09,1.36-4.71,6-4.72,6.1,0,.77-.54,74.34-.18,89,.09,4,3.91,5.86,6.4,6.63Z"/><path class="cls-1" d="M538,261.23h.65c-3.24,1.79-3.77,5.77-3.78,5.82v.05c0,.75-.54,74.32-.18,89,.08,3.5,2.77,5.38,5.15,6.36H522.08a7.59,7.59,0,0,0,3.72-2.7,4.77,4.77,0,0,0,.79-3.58c0-2.44.18-76,0-85.25-.11-5.76-3.08-8.38-5.54-9.57,4.36-.05,12.07-.12,16.9-.12m0-.5c-7.08,0-20.18.16-20.18.16s8.14.56,8.32,10,0,85.3,0,85.3,1.45,5.5-8.32,6.72h25.69s-8.18-1.05-8.32-6.87c-.37-14.83.18-89,.18-89s.72-5.87,6.33-6.22c1.87-.12-.16-.16-3.7-.16Z"/><path class="cls-1" d="M208.78,362.71c-3.57,0-8.05-1-9.17-6a40,40,0,0,1-.64-5.13.24.24,0,0,0-.15-.21l-.1,0a.22.22,0,0,0-.15.06,51.57,51.57,0,0,1-32.33,11.27A52.12,52.12,0,1,1,196.38,268,49.45,49.45,0,0,0,173,262.19c-26.65,0-48.33,21-48.33,46.79s21.68,46.79,48.33,46.79a49.32,49.32,0,0,0,25.63-7.14.27.27,0,0,0,.12-.23c-.77-15.11-.09-42.59-.08-42.86a.32.32,0,0,0-.07-.19.29.29,0,0,0-.18-.07H187.23v-.88h26.1c-2,.93-5.3,3.48-5.2,10.14.16,9.22,0,41.11,0,41.43,0,.07.31,5.23,4.14,6.43a20.94,20.94,0,0,1-3.49.31Z"/><path class="cls-1" d="M166.24,258.66A51.84,51.84,0,0,1,193,266.08,49.72,49.72,0,0,0,173,261.94c-26.79,0-48.58,21.11-48.58,47s21.79,47,48.58,47a49.51,49.51,0,0,0,25.76-7.18.49.49,0,0,0,.24-.45c-.77-15.11-.09-42.57-.08-42.85a.54.54,0,0,0-.14-.36.51.51,0,0,0-.36-.15h-11v-.38h24.87c-2,1.25-4.56,4-4.46,9.9.15,9.21,0,41.09,0,41.44,0,.06.27,4.62,3.45,6.3a21.39,21.39,0,0,1-2.56.16c-3.48,0-7.85-1-8.93-5.83a41.68,41.68,0,0,1-.63-5.09.51.51,0,0,0-.3-.42.65.65,0,0,0-.2,0,.51.51,0,0,0-.31.11,51.27,51.27,0,0,1-32.17,11.22,51.87,51.87,0,1,1,0-103.74m0-.5a52.37,52.37,0,1,0,32.48,93.41,39,39,0,0,0,.65,5.16c1.15,5.14,5.75,6.22,9.41,6.22a21.2,21.2,0,0,0,4.8-.56c-4.89-.31-5.2-6.42-5.2-6.42s.16-32.1,0-41.43,6.43-10.39,6.43-10.39H187v1.38h11.47s-.7,27.59.08,42.89a49,49,0,0,1-25.5,7.1C146.47,355.52,125,334.68,125,309s21.52-46.54,48.08-46.54a49,49,0,0,1,26.73,7.86,52.13,52.13,0,0,0-33.52-12.14Zm48.57,46Z"/><path class="cls-1" d="M282.5,275l.05.09c1.94-4.49,3.16-7.29,3.16-7.29Z"/><path class="cls-1" d="M285.71,267.8h0Zm0,0L282.5,275l.05.09c1.94-4.49,3.16-7.29,3.16-7.29Z"/><path class="cls-1" d="M327.09,363.24c-3.91,0-9-.72-11.18-4.19-1.22-2-5-10.93-11.17-26.61a.24.24,0,0,0-.2-.16h-.11l.09-.13a.26.26,0,0,0,0-.23c-9-22.9-20.34-52.79-21.6-56.13a.26.26,0,0,0-.23-.16h0a.25.25,0,0,0-.15.05c0-.07.07-.15.1-.23a.25.25,0,0,0,.18-.14l6.09-13.74,36.62,94s1.51,5.85,6.32,7.32a37.27,37.27,0,0,1-4.78.32Zm-54.18,0a15.94,15.94,0,0,1-10.12-3.87c-9.52-7.67-7.82-16.7-5.27-23.72,2.62-7.23,9.1-22.71,15.16-36.94-5.41,12.75-10.78,25.69-13.12,32.13-2.6,7.17-4.33,16.41,5.43,24.28a16.43,16.43,0,0,0,10.43,4c7.06,0,12.52-5,14-6.53,3.15-3.19,7.95-9.87,12.17-16.06-4.72,7.11-11.16,16.41-15,20.35C285.1,358.33,279.77,363.21,272.91,363.21Z"/><path class="cls-1" d="M288.92,262.23l36.39,93.43c.13.5,1.46,5.29,5.51,7.13a35.86,35.86,0,0,1-3.73.2c-3.85,0-8.88-.7-11-4.07-1.21-2-5-10.9-11.14-26.57a.58.58,0,0,0-.18-.23.54.54,0,0,0,0-.28c-9-22.94-20.35-52.8-21.6-56.12a.6.6,0,0,0-.16-.22.56.56,0,0,0,.05-.08l5.85-13.19m-31,72.92c-1.27,5.4-1.45,13.42,6.88,20.14a16.74,16.74,0,0,0,10.59,4c7.15,0,12.68-5.05,14.21-6.6.32-.33.67-.71,1-1.11a58.64,58.64,0,0,1-4.26,5.05c-1.46,1.48-6.73,6.3-13.49,6.3a15.73,15.73,0,0,1-10-3.81c-9.4-7.58-7.71-16.51-5.2-23.44.07-.18.13-.37.2-.56m31-74.22-6.34,14.29-.06-.13c-6.47,14.93-21,48.6-25.27,60.45-2.1,5.77-4.89,15.74,5.35,24a16.19,16.19,0,0,0,10.28,3.92c6.1,0,11.23-3.8,13.84-6.45,4.7-4.77,13.09-17.3,17.76-24.48,5.27,13.36,9.79,24.39,11.19,26.65,2.18,3.52,7.25,4.31,11.39,4.31a36.2,36.2,0,0,0,6.19-.54c-5.81-.65-7.49-7.44-7.49-7.44L289,260.93Zm-13.53,97.89a16.14,16.14,0,0,1-10.27-3.92c-10.24-8.26-7.45-18.23-5.35-24,3.83-10.57,15.78-38.5,22.91-55,1.55,4.1,12.62,33.35,21.6,56.13-4.74,7.15-11.15,16.4-15,20.35-2.62,2.65-7.75,6.45-13.85,6.45Z"/><path class="cls-1" d="M660.61,357a51.79,51.79,0,0,0,35.91.34,48,48,0,0,0,26.15-22.48,44.52,44.52,0,0,0,3.49-33.34,45.12,45.12,0,0,0-20.48-26.2,46.22,46.22,0,0,0-15.92-5.84c-1.42-.18-2.82-.45-4.25-.55l-4.28-.17L677,269c-1.42.17-2.83.44-4.25.63a47.09,47.09,0,0,0-28.65,17.8A45.81,45.81,0,0,0,636.39,303c-.18.7-.46,1.4-.57,2.12l-.39,2.17c-.12.73-.29,1.45-.37,2.18l-.16,2.21-.17,2.21,0,2.23c0,.74.08,1.48.12,2.22s.11,1.49.21,2.22a48,48,0,0,0,10.61,24.73,53.8,53.8,0,0,0,6.48,6.69,47.71,47.71,0,0,1-21.45-30.69l-.26-1.2-.18-1.21c-.11-.82-.27-1.62-.32-2.44l-.21-2.46v-4.94c0-.82.15-1.64.21-2.46l.25-2.47c.07-.83.31-1.63.45-2.45a49.82,49.82,0,0,1,7.64-18.34A53.19,53.19,0,0,1,671,261.27,54,54,0,0,1,725.45,281a51.23,51.23,0,0,1,10.08,38.39,50.26,50.26,0,0,1-6.73,18.91A51.09,51.09,0,0,1,715.46,353a52.37,52.37,0,0,1-17.65,8.51A50.1,50.1,0,0,1,660.61,357Z"/><path class="cls-1" d="M417.37,363c-6.19-.07-18.73-.85-22.15-5.9-4.82-7.11-21.55-31.87-21.55-31.87a38.48,38.48,0,0,0-12.77-12.93h12.82a.5.5,0,0,0,.29.33,23.39,23.39,0,0,1,10.28,9.24c4.77,7.72,20.26,30.52,20.42,30.75S410.58,360.33,417.37,363Zm-72.63-.58a7.07,7.07,0,0,0,3-2.35,5.41,5.41,0,0,0,.9-3.93c0-2.29.15-76,0-85.26-.09-5.76-2.63-8.38-4.72-9.57,3.69-.05,10.18-.12,14.25-.12h.54c-2.8,1.79-3.26,5.78-3.27,5.82s-.14,22.26-.21,44.79a.52.52,0,0,0,0,.18.58.58,0,0,0,0,.19c-.08,23.49-.06,38.25.06,43.88a7.17,7.17,0,0,0,4.46,6.37Zm37.31-50.75c5-1.68,15.87-7.53,15.78-26.67-.09-16.27-9.28-21.78-15.64-23.65h.71c2.7,0,25.4.67,25.55,23.8.15,24-20.59,26.43-21.48,26.52Z"/><path class="cls-1" d="M357.25,261.73a9.92,9.92,0,0,0-2.34,5.27.38.38,0,0,0,0,.1c0,.22-.14,22.46-.21,44.74a.55.55,0,0,0,0,.18.58.58,0,0,0,0,.19c-.08,23.47-.06,38.24.06,43.89a7.25,7.25,0,0,0,3.12,5.85H346.59a6.61,6.61,0,0,0,1.52-1.56,6,6,0,0,0,1-4.25c0-3,.15-76,0-85.23-.07-4.82-1.82-7.55-3.65-9.08,3.46,0,8.29-.09,11.8-.1m28.12.29a31.93,31.93,0,0,1,10.75,3c7.79,3.85,11.77,10.65,11.83,20.22.06,9.88-3.43,17.25-10.39,21.91a26.33,26.33,0,0,1-10.59,4.1h-2.24a21.83,21.83,0,0,0,4.4-2.78c4.23-3.45,9.26-10.31,9.2-23.4-.08-14.13-6.92-20.31-13-23m-11.94,50.82a1.1,1.1,0,0,0,.38.29,22.84,22.84,0,0,1,10.06,9.05c4.77,7.72,20.27,30.53,20.43,30.76l0,0c.25.33,4.79,6.28,10.72,9.51-10.08-.36-17.23-2.41-19.42-5.63L374.1,325a39.56,39.56,0,0,0-11.45-12.18h10.78m-15.3-52.11c-6,0-17.06.16-17.06.16s6.88.56,7,10,0,85.3,0,85.3,1.23,5.5-7,6.72h21.71s-6.91-1.05-7-6.87c-.14-6.67-.12-25.34-.06-43.87h3.95c8.74,4.64,13.61,13.34,13.61,13.34s16.74,24.76,21.56,31.87c3.72,5.51,17.5,6.13,23.52,6.13,1.75,0,2.84-.06,2.84-.06-8.25-.8-16.05-11.11-16.05-11.11s-15.59-22.93-20.4-30.73a23.81,23.81,0,0,0-10.51-9.44H387s22.07-2.25,21.92-27c-.15-23.88-24.23-24.3-26-24.3H361.25c1.58-.12-.14-.16-3.12-.16Zm-2.44,51.11c.07-22.53.21-44.73.21-44.73s.6-5.62,5.07-6.18H376.3c1.4,0,20.91.42,21,24.11.12,24.56-17.76,26.8-17.76,26.8H355.69Z"/><path class="cls-2" d="M470.51,260.73H437.93v0c-5.35.05-10.86.13-10.86.13s6.88.56,7,10,0,85.3,0,85.3,1.23,5.5-7,6.72h43.44c25.06,0,45.38-22.88,45.38-51.11S495.57,260.73,470.51,260.73Zm13.16,94.79a30.85,30.85,0,0,1-19.58,7.33h-15.8c-1.56-.36-6.44-1.88-6.54-6.77-.31-14.83.15-89,.15-89s.61-5.87,5.35-6.22a4.12,4.12,0,0,0,.54-.06H464c21,0,39.93,22.86,39.93,51.06C503.89,330.37,494.6,346.56,483.67,355.52Z"/><path class="cls-1" d="M553.2,363.17a6.41,6.41,0,0,0,1.71-4.05c0-.8.28-78.74,0-87.5a16.76,16.76,0,0,0-2-8l0-.05,0,0c-.91-.85-1.88-1.69-2.88-2.48.71-.06,1.77-.13,3-.13,4.35,0,12.1.78,15.21,6,4,6.72,37.69,56.88,47.92,72.09l.68,1v-1.22c.16-25.8.39-69.6.23-73.06a5.33,5.33,0,0,0-2.86-4.67l8,.1a5.9,5.9,0,0,0-2.39,4.65c-.16,64.82-.1,70.15,0,76.88l0,2c.07,7.33.09,11.1.1,12.8l-61.48-87.31-.19-.33-.69-1.11V270c-.06,19.53-.23,83.62,0,88a5.83,5.83,0,0,0,3,5.13Z"/><path class="cls-1" d="M553,261.26c4.26,0,11.87.76,14.88,5.82,4,6.71,37.69,56.89,47.93,72.11l1.35,2,0-2.43c.12-20.77.39-69.46.22-73.09a5.71,5.71,0,0,0-2-4.26l5.77.07a6.19,6.19,0,0,0-1.75,4.28c-.15,64.88-.09,70.19,0,76.91l0,2c.07,5.95.09,9.55.1,11.61L558.77,270c0-.06-.1-.17-.21-.34l-1.38-2.22V270c-.06,19.53-.23,83.62,0,88a6.48,6.48,0,0,0,2.19,4.74H554a7.34,7.34,0,0,0,1.24-3.69c0-.79.28-78.74,0-87.51a17.17,17.17,0,0,0-2-8.22l-.05-.09-.08-.07c-.69-.65-1.42-1.29-2.16-1.9.59,0,1.29-.06,2.07-.06m0-.75a33.36,33.36,0,0,0-4,.22c1.37,1,2.55,2.07,3.59,3a16.19,16.19,0,0,1,1.94,7.86c.29,8.85,0,87.48,0,87.48s-.16,3.59-2.7,4.44h11.08a5.6,5.6,0,0,1-5-5.53c-.25-4.46-.07-70.74,0-88,.13.21.2.34.2.34l62.16,88.28s0-2.9-.1-14c-.08-8.34-.17-8,0-78.88a5.25,5.25,0,0,1,3.65-5l-12.08-.15s4.68.43,4.9,5.1c.17,3.59-.09,51.23-.22,73-10.49-15.59-43.93-65.38-47.91-72.08-3.15-5.3-10.79-6.18-15.52-6.18Z"/></g></svg>