<svg width="225" height="65" viewBox="0 0 225 65" fill="none" xmlns="http://www.w3.org/2000/svg">
<g clip-path="url(#clip0)">
<path d="M100.761 51.2855C100.761 51.2855 96.0005 51.2855 93.5322 51.2855C91.0933 51.2855 85.0988 49.6494 85.0988 39.9514V15.7363H79.5156V40.6951C79.5156 51.8507 87.8609 56.4617 93.5028 56.4617C94.5019 56.4617 106.285 56.4617 106.285 56.4617V15.7363H100.702V51.2855H100.761Z" fill="black"/>
<path d="M130.057 15.7363L118.362 56.4617H124.269L134.083 21.448L143.898 56.4617H149.804L138.08 15.7363H130.057Z" fill="black"/>
<path d="M43.46 56.4617H66.4389V51.2855H49.0137V37.1848H63.2654V31.9789H49.0137V20.9423H66.4389V15.7363H43.46V56.4617Z" fill="black"/>
<path d="M98.9286 0.019274L90.4512 8.60156L93.9627 12.1565L102.44 3.57419L98.9286 0.019274Z" fill="black"/>
<path d="M219.417 15.7363V31.9789H203.784V15.7363H198.201V56.4617H203.784V37.1848H219.417V56.4617H225V15.7363H219.417Z" fill="black"/>
<path d="M179.865 17.0154C177.719 15.5875 175.251 14.8438 172.665 14.8438C170.079 14.8438 167.611 15.5875 165.466 17.0154C161.705 19.5142 159.56 23.9765 159.56 29.3014V42.8964C159.56 48.2808 161.646 52.6241 165.466 55.1824C167.611 56.6103 170.079 57.354 172.665 57.354C175.251 57.354 177.719 56.6103 179.865 55.1824C183.626 52.6836 185.771 48.2213 185.771 42.8964V29.3014C185.771 23.917 183.685 19.544 179.865 17.0154ZM180.188 43.2236C180.188 46.6744 178.895 49.679 176.808 51.0772C175.574 51.9101 174.164 52.3266 172.665 52.3266C171.196 52.3266 169.756 51.8804 168.522 51.0772C166.494 49.7385 165.143 46.5554 165.143 43.2236V29.0039C165.143 25.5531 166.436 22.5486 168.522 21.1504C169.756 20.3174 171.167 19.901 172.665 19.901C174.134 19.901 175.574 20.3472 176.808 21.1504C178.836 22.4891 180.188 25.6721 180.188 29.0039V43.2236Z" fill="black"/>
<path d="M26.7696 15.7363H21.1865V51.2558C21.1865 51.2558 16.4261 51.2558 13.9578 51.2558C11.5189 51.2558 5.52436 49.6196 5.52436 39.9217V15.7363H0V40.6951C0 51.8507 8.3453 56.4617 13.9872 56.4617C14.6337 56.4617 20.0405 56.4617 23.6254 56.4617L18.6006 61.5487L22.0093 64.9995L30.4133 56.4915V51.3153H26.7696V15.7363Z" fill="black"/>
</g>
<defs>
<clipPath id="clip0">
<rect width="225" height="65" fill="white"/>
</clipPath>
</defs>
</svg>
