<svg width="395" height="125" viewBox="0 0 395 125" fill="none" xmlns="http://www.w3.org/2000/svg">
<path d="M18.9293 61.6034L35.0325 60.2927L34.4708 83.6984C34.0963 95.4947 28.1044 102.797 16.6824 103.546C5.26042 104.483 -0.356929 98.1162 0.0175599 86.3199L1.14104 47.9346C1.51553 36.1383 7.50737 28.8356 18.9293 28.0866C30.3513 27.1504 35.9685 33.5168 35.594 45.3131L35.4068 52.4285L24.5467 53.1775L24.7339 45.3131C24.9212 40.0702 22.6742 38.1977 18.9293 38.5722C15.1844 38.9467 12.9375 41.0065 12.7502 46.2494L11.6268 86.1326C11.4395 91.3755 13.6865 93.0608 17.4314 92.8735C21.1763 92.499 23.4232 90.4393 23.6104 85.1964L23.9849 71.5275L18.7421 71.902L18.9293 61.6034Z" fill="black"/>
<path d="M39.9008 44.9385C40.2752 33.1419 46.6417 25.8395 57.8765 25.0905C69.2984 24.1542 75.2903 30.5205 74.9158 42.3171L73.7923 80.7023C73.4178 92.4987 67.0514 99.8013 55.8168 100.55C44.3947 101.487 38.403 95.1201 38.7773 83.3238L39.9008 44.9385ZM50.3866 83.3238C50.1994 88.5665 52.4463 90.4389 56.1913 90.0644C59.936 89.6899 62.183 87.6305 62.3702 82.3875L63.4937 42.5043C63.6809 37.2614 61.434 35.3889 57.6893 35.7634C53.9443 36.1379 51.6973 38.1976 51.5101 43.4405L50.3866 83.3238Z" fill="black"/>
<path d="M79.4098 41.9424C79.7843 30.146 86.1505 22.8434 97.3853 22.0944C108.807 21.1582 114.799 27.5246 114.425 39.3209L113.488 77.7062C113.114 89.5028 106.747 96.8052 95.5129 97.5542C84.091 98.4904 78.0991 92.1242 78.4736 80.3276L79.4098 41.9424ZM89.8954 80.3276C89.7082 85.5706 91.9552 87.443 95.7001 87.0685C99.4451 86.694 101.692 84.6343 101.879 79.3914L103.003 39.5082C103.19 34.2655 100.943 32.393 97.1981 32.7675C93.4531 33.142 91.2062 35.2015 91.0189 40.4444L89.8954 80.3276Z" fill="black"/>
<path d="M135.958 19.0983C147.192 18.1621 152.81 24.5285 152.435 36.3249V38.5719L141.575 39.3208V36.3249C141.762 31.082 139.703 29.2095 135.958 29.3967C132.213 29.7712 130.153 31.8309 129.966 37.0739C129.591 52.2407 152.061 53.3642 151.499 74.5229C151.125 86.3195 145.133 93.6219 133.711 94.3709C122.289 95.3071 116.671 88.9407 117.046 77.1444L117.233 72.6504L128.093 71.9014L127.906 77.1444C127.719 82.3873 129.966 84.0725 133.711 83.8853C137.456 83.5108 139.703 81.451 139.89 76.2081C140.264 61.0413 117.795 59.9178 118.357 38.7591C118.731 27.1498 124.723 19.8473 135.958 19.0983Z" fill="black"/>
<path d="M168.351 48.4965L184.08 47.373L183.893 57.8586L167.977 58.9821L167.415 80.7026L187.263 79.2046L187.076 89.6905L155.432 92.1244L157.491 18.1627L189.136 15.7285L188.761 26.4015L168.913 27.8995L168.351 48.4965Z" fill="black"/>
<path d="M224.712 45.6874L240.816 44.3769L240.253 67.7823C239.88 79.5789 233.887 86.8813 222.465 87.6303C211.043 88.5666 205.425 82.2004 205.8 70.4038L206.923 32.0185C207.298 20.2221 213.29 12.9196 224.712 12.1706C236.134 11.2344 241.752 17.6007 241.376 29.3971L241.189 36.5125L230.329 37.2615L230.516 29.3971C230.703 24.1543 228.456 22.2818 224.712 22.6563C220.967 23.0308 218.72 25.0904 218.532 30.3333L217.409 70.2165C217.222 75.4595 219.469 77.1447 223.214 76.9575C226.959 76.583 229.205 74.5232 229.393 69.2803L229.767 55.6115L224.524 55.986L224.712 45.6874Z" fill="black"/>
<path d="M245.684 29.2099C246.057 17.4135 252.424 10.111 263.659 9.362C275.08 8.42579 281.071 14.7921 280.698 26.5887L279.575 64.9739C279.199 76.7703 272.834 84.0729 261.6 84.8219C250.178 85.7581 244.185 79.3917 244.561 67.5954L245.684 29.2099ZM256.169 67.4081C255.982 72.6508 258.228 74.5233 261.973 74.1488C265.718 73.7743 267.967 71.7146 268.153 66.4719L269.276 26.5887C269.463 21.3457 267.217 19.4732 263.472 19.8477C259.727 20.2222 257.479 22.2819 257.292 27.5249L256.169 67.4081Z" fill="black"/>
<path d="M285.192 26.0264C285.566 14.23 291.933 6.92738 303.168 6.17841C314.589 5.24218 320.58 11.6085 320.207 23.405L319.084 61.7902C318.708 73.5868 312.343 80.8892 301.108 81.6382C289.687 82.5744 283.693 76.208 284.069 64.4117L285.192 26.0264ZM295.678 64.4117C295.491 69.6546 297.737 71.5271 301.482 71.1526C305.227 70.7781 307.475 68.7183 307.662 63.4754L308.785 23.5922C308.972 18.3493 306.726 16.4769 302.981 16.8514C299.236 17.2259 296.988 19.2856 296.801 24.5284L295.678 64.4117Z" fill="black"/>
<path d="M341.741 3.18232C352.976 2.24609 358.593 8.61243 358.217 20.4089V22.6558L347.358 23.4048V20.4089C347.545 15.166 345.486 13.2936 341.741 13.4808C337.996 13.8553 335.937 15.915 335.75 21.1579C335.374 36.3247 357.844 37.4482 357.281 58.6069C356.907 70.4032 350.916 77.7059 339.495 78.4549C328.071 79.3911 322.453 73.0247 322.829 61.2284L323.016 56.7344L333.877 55.9854L333.688 61.2284C333.501 66.4713 335.75 68.1565 339.495 67.9693C343.24 67.5948 345.486 65.5351 345.672 60.2921C346.046 45.1253 323.579 44.0018 324.139 22.8431C324.515 11.2339 330.506 4.11854 341.741 3.18232Z" fill="black"/>
<path d="M374.133 32.5806L389.862 31.4573L389.675 41.9429L373.759 43.2537L373.197 64.7869L393.045 63.2889L392.858 73.9618L361.215 76.396L363.274 2.43419L394.917 0L394.543 10.4857L374.696 11.9837L374.133 32.5806Z" fill="black"/>
<path d="M59.1868 115.343L61.0593 115.156V117.965C61.0593 119.275 60.3103 120.212 58.9996 120.212C57.6888 120.399 56.9399 119.65 57.1271 118.152L57.3144 113.658C57.3144 112.347 58.0633 111.411 59.3741 111.411C60.6848 111.224 61.4338 111.973 61.2465 113.471V114.22L59.9358 114.407V113.471C59.9358 112.909 59.7486 112.722 59.1868 112.722C58.8123 112.722 58.4378 113.096 58.4378 113.658L58.2506 118.339C58.2506 118.901 58.4378 119.088 58.9996 119.088C59.3741 119.088 59.7486 118.901 59.7486 118.152V116.654H59.1868V115.343Z" fill="black"/>
<path d="M63.681 114.969L65.5534 114.782V117.591C65.5534 118.901 64.8045 119.838 63.4937 119.838C62.183 120.025 61.434 119.276 61.6212 117.778L61.8085 113.284C61.8085 111.973 62.5575 111.037 63.8682 111.037C65.1789 111.037 65.9279 111.599 65.7407 113.097V113.846L64.43 114.033V113.097C64.43 112.535 64.2427 112.348 63.681 112.348C63.3065 112.348 62.932 112.722 62.932 113.284L62.7447 117.965C62.7447 118.527 62.932 118.714 63.4937 118.714C63.8682 118.714 64.2427 118.527 64.2427 117.778V116.28H63.681V114.969Z" fill="black"/>
<path d="M61.4344 124.517C56.566 124.517 52.6338 120.585 52.6338 115.716C52.6338 110.848 56.566 106.916 61.4344 106.916C66.3026 106.916 70.2348 110.848 70.2348 115.716C70.2348 120.585 66.3026 124.517 61.4344 124.517ZM61.4344 108.04C57.1277 108.04 53.57 111.597 53.57 115.904C53.57 120.21 57.1277 123.768 61.4344 123.768C65.7409 123.768 69.2986 120.21 69.2986 115.904C69.1113 111.41 65.7409 108.04 61.4344 108.04Z" fill="black"/>
<path d="M330.319 95.1206L332.191 94.9334V97.7421C332.191 99.0528 331.442 99.9891 330.132 99.9891C328.82 100.176 328.07 99.4273 328.259 97.9293L328.446 93.4354C328.446 92.1247 329.196 91.1884 330.505 91.1884C331.815 91.0012 332.565 91.7502 332.378 93.2482V93.9971L331.068 94.1844V93.2482C331.068 92.6864 330.879 92.4992 330.319 92.4992C329.943 92.4992 329.569 92.8737 329.569 93.4354L329.382 98.1166C329.382 98.6783 329.569 98.8656 330.132 98.8656C330.505 98.8656 330.879 98.6783 330.879 97.9293V96.4314H330.319V95.1206Z" fill="black"/>
<path d="M334.999 94.7454L336.872 94.5581V97.3669C336.872 98.6776 336.122 99.6138 334.813 99.6138C333.5 99.8011 332.751 99.0521 332.94 97.5541L333.127 93.0602C333.127 91.7494 333.876 90.8134 335.186 90.8134C336.496 90.6262 337.245 91.3752 337.059 92.8729V93.6219L335.749 93.8092V92.8729C335.749 92.3112 335.56 92.1239 334.999 92.1239C334.623 92.1239 334.25 92.4984 334.25 93.0602L334.063 97.7414C334.063 98.3031 334.25 98.4903 334.813 98.4903C335.186 98.4903 335.56 98.3031 335.56 97.5541V96.0561H334.999V94.7454Z" fill="black"/>
<path d="M332.564 104.296C327.696 104.296 323.765 100.364 323.765 95.4957C323.765 90.6275 327.696 86.6953 332.564 86.6953C337.432 86.6953 341.366 90.6275 341.366 95.4957C341.366 100.364 337.432 104.296 332.564 104.296ZM332.564 87.8188C328.259 87.8188 324.701 91.3765 324.701 95.6829C324.701 99.9896 328.259 103.547 332.564 103.547C336.872 103.547 340.43 99.9896 340.43 95.6829C340.43 91.1892 336.872 87.8188 332.564 87.8188Z" fill="black"/>
<path d="M81.0949 120.961L79.0352 121.149L80.1586 108.603L84.6526 108.229C85.4016 108.229 86.1506 108.229 86.525 108.416C86.8995 108.603 87.274 108.978 87.6485 109.352C88.023 109.914 88.2103 110.475 88.2103 111.224C88.2103 112.348 88.023 113.284 87.6485 113.846C87.0868 114.595 86.3378 114.969 85.4016 115.344C85.7761 115.718 85.9633 116.093 86.3378 116.655C86.8996 117.591 87.4613 118.902 88.2103 120.587L85.9633 120.774C85.7761 120.4 85.4016 119.463 84.8398 117.965C84.4653 117.216 84.2781 116.655 83.9036 116.28C83.7163 116.093 83.5291 115.906 83.3418 115.906C83.1546 115.906 82.9674 115.718 82.4056 115.906H81.4694L81.0949 120.961ZM81.8439 113.846H82.9674C84.0908 113.846 84.6526 113.659 85.0271 113.471C85.4016 113.284 85.5888 113.097 85.9633 112.722C86.1506 112.348 86.3378 111.973 86.1506 111.599C86.1506 111.037 85.9633 110.85 85.5888 110.663C85.4016 110.475 85.0271 110.475 84.4653 110.475L82.2184 110.663L81.8439 113.846Z" fill="black"/>
<path d="M91.7676 120.21L92.8911 107.478L100.381 106.916L100.194 109.163L94.7635 109.537L94.5763 112.346L99.8192 111.972L99.632 114.031L94.2018 114.406L94.0145 117.963L99.8192 117.402L99.632 119.461L91.7676 120.21Z" fill="black"/>
<path d="M103.564 115.156L105.624 114.968C105.624 115.717 105.811 116.092 105.999 116.279C106.186 116.466 106.373 116.654 106.747 116.841C107.122 117.028 107.496 117.028 107.871 117.028C108.433 117.028 108.994 116.841 109.369 116.466C109.743 116.092 109.743 115.717 109.743 115.343C109.743 114.968 109.556 114.781 109.369 114.594C109.182 114.407 108.62 114.032 107.871 113.658C106.935 113.283 106.186 112.909 105.811 112.534C105.437 112.347 105.25 111.973 105.062 111.598C104.875 111.224 104.688 110.662 104.688 110.1C104.688 108.977 104.875 108.04 105.437 107.291C105.998 106.542 106.935 106.168 108.058 106.168C109.182 106.168 110.118 106.355 110.867 106.917C111.616 107.479 111.99 108.415 112.178 109.538L110.118 109.726C109.931 108.602 109.182 107.853 108.058 108.04C107.496 108.04 107.122 108.228 106.935 108.415C106.747 108.602 106.56 108.977 106.56 109.351C106.56 109.726 106.747 110.1 106.935 110.287C107.122 110.475 107.684 110.849 108.433 111.036C109.369 111.411 110.118 111.785 110.492 112.16C110.867 112.347 111.054 112.721 111.241 113.096C111.429 113.47 111.616 114.032 111.616 114.407C111.616 115.53 111.429 116.654 110.68 117.403C109.931 118.152 108.994 118.713 107.871 118.713C106.935 118.713 106.186 118.713 105.437 118.339C104.688 117.964 104.313 117.59 103.939 116.841C103.752 116.654 103.564 115.905 103.564 115.156Z" fill="black"/>
<path d="M119.855 117.965L117.795 118.152L118.919 107.667L115.735 107.854L115.923 105.794L124.161 105.232L123.787 107.292L120.978 107.479L119.855 117.965Z" fill="black"/>
<path d="M131.838 114.407L127.718 114.781L126.595 117.59L124.348 117.777L129.216 104.857L131.463 104.67L134.085 117.028H132.399L131.838 114.407ZM131.463 112.347L130.527 107.479L128.654 112.721L131.463 112.347Z" fill="black"/>
<path d="M139.141 104.109L141.2 103.921L140.639 110.849L140.451 112.535C140.451 112.722 140.451 112.909 140.451 112.909C140.451 113.471 140.639 113.845 141.013 114.032C141.388 114.407 141.762 114.407 142.324 114.407C142.698 114.407 143.26 114.22 143.447 114.032C143.822 113.845 144.009 113.471 144.196 113.096C144.384 112.722 144.571 111.786 144.571 110.662L145.32 103.734L147.379 103.547L146.63 110.475C146.443 111.973 146.256 112.909 146.069 113.658C145.694 114.594 145.32 115.343 144.758 115.905C144.196 116.467 143.26 116.654 142.324 116.841C141.2 116.841 140.264 116.654 139.515 116.092C138.766 115.53 138.392 114.594 138.392 113.284C138.392 112.909 138.392 112.16 138.579 111.037L139.141 104.109Z" fill="black"/>
<path d="M152.81 115.529L150.75 115.717L151.873 103.171L156.367 102.797C157.116 102.797 157.865 102.797 158.24 102.984C158.614 103.171 158.989 103.546 159.363 103.92C159.738 104.482 159.925 105.044 159.925 105.793C159.925 106.916 159.738 107.853 159.363 108.414C158.802 109.163 158.053 109.538 157.116 109.912C157.491 110.287 157.678 110.661 158.053 111.223C158.614 112.159 159.176 113.47 159.925 115.155L157.678 115.342C157.491 114.968 157.116 114.031 156.555 112.534C156.18 111.785 155.993 111.223 155.618 110.848C155.431 110.661 155.244 110.474 155.057 110.474C154.869 110.474 154.682 110.287 154.12 110.474H153.184L152.81 115.529ZM153.559 108.414H154.682C155.806 108.414 156.367 108.227 156.742 108.04C157.116 107.853 157.304 107.665 157.678 107.291C157.865 106.916 158.053 106.542 157.865 106.167C157.865 105.606 157.678 105.418 157.304 105.231C157.116 105.044 156.742 105.044 156.18 105.044L153.933 105.231L153.559 108.414Z" fill="black"/>
<path d="M169.849 111.411L165.73 111.785L164.606 114.594L162.359 114.781L167.228 101.861L169.475 101.674L172.096 114.032L170.037 114.219L169.849 111.411ZM169.475 109.538L168.539 104.67L166.666 109.913L169.475 109.538Z" fill="black"/>
<path d="M184.266 113.096L182.394 113.283L179.024 105.232L178.087 113.658L176.215 113.845L177.338 101.113H179.398L182.769 109.164L183.517 100.738L185.577 100.551L184.266 113.096Z" fill="black"/>
<path d="M193.255 112.533L191.195 112.72L192.132 102.235L189.136 102.422L189.323 100.362L197.375 99.6133L197.187 101.86L194.379 102.048L193.255 112.533Z" fill="black"/>
<path d="M206.361 111.598L207.485 99.0525L211.043 98.8652C211.979 98.8652 212.728 98.8652 213.102 98.8652C213.664 99.0525 214.226 99.2397 214.6 99.8015C214.975 100.176 215.162 100.925 215.162 101.674C215.162 102.423 215.162 102.985 214.787 103.546C214.413 104.108 214.038 104.483 213.477 104.857C214.038 105.044 214.413 105.232 214.787 105.606C215.162 105.981 215.349 106.542 215.349 107.104C215.349 107.853 215.349 108.602 214.975 109.351C214.6 110.1 214.226 110.475 213.664 110.849C213.102 111.224 212.353 111.411 211.23 111.411L206.361 111.598ZM208.796 109.351L210.855 109.164C211.604 109.164 212.166 108.977 212.541 108.789C212.915 108.602 213.102 108.415 213.289 108.04C213.477 107.666 213.477 107.291 213.477 106.917C213.477 106.542 213.289 106.168 212.915 105.981C212.728 105.793 212.166 105.606 211.604 105.606L209.17 105.793L208.796 109.351ZM209.17 103.921L210.855 103.734C211.604 103.734 211.979 103.546 212.353 103.359C212.728 103.172 212.915 102.985 213.102 102.797C213.289 102.423 213.289 102.236 213.289 101.861C213.289 101.487 213.102 101.299 213.102 101.112C212.915 100.925 212.728 100.738 212.541 100.738C212.353 100.738 211.979 100.738 211.23 100.738L209.545 100.925L209.17 103.921Z" fill="black"/>
<path d="M218.907 110.662L220.218 97.9294L222.278 97.7422L220.967 110.475L218.907 110.662Z" fill="black"/>
<path d="M225.461 105.98L227.521 105.793C227.521 106.542 227.708 106.916 227.895 107.103C228.082 107.291 228.27 107.478 228.644 107.665C229.019 107.852 229.393 107.852 229.768 107.852C230.329 107.852 230.891 107.665 231.266 107.291C231.64 106.916 231.64 106.542 231.64 106.167C231.64 105.793 231.453 105.605 231.266 105.418C231.078 105.231 230.517 104.857 229.768 104.482C228.831 104.108 228.082 103.733 227.708 103.359C227.333 103.171 227.146 102.797 226.959 102.422C226.772 102.048 226.584 101.486 226.584 100.924C226.584 99.8009 226.772 98.8647 227.333 98.1157C227.895 97.3667 228.831 96.9922 229.955 96.9922C231.078 96.9922 232.015 97.1794 232.764 97.7412C233.513 98.3029 233.887 99.2392 234.074 100.363L232.015 100.55C231.827 99.4264 231.078 98.6774 229.955 98.8647C229.393 98.8647 229.019 99.0519 228.831 99.2392C228.644 99.4264 228.457 99.8009 228.457 100.175C228.457 100.55 228.644 100.924 228.831 101.112C229.019 101.299 229.58 101.673 230.329 102.048C231.266 102.422 232.015 102.797 232.389 103.171C232.764 103.359 232.951 103.733 233.138 104.108C233.325 104.482 233.513 105.044 233.513 105.418C233.513 106.542 233.325 107.665 232.576 108.414C231.827 109.163 230.891 109.725 229.768 109.725C228.831 109.725 228.082 109.725 227.333 109.35C226.584 108.976 226.21 108.601 225.835 107.852C225.648 107.478 225.461 106.729 225.461 105.98Z" fill="black"/>
<path d="M241.939 108.789L239.691 108.976L240.816 98.4909L237.632 98.6781L237.819 96.6184L246.057 96.0566L245.871 98.1164L242.875 98.3036L241.939 108.789Z" fill="black"/>
<path d="M250.739 108.229L248.68 108.416L249.803 95.8706L254.297 95.4961C255.047 95.4961 255.796 95.4961 256.17 95.6833C256.543 95.8706 256.919 96.2451 257.293 96.6196C257.669 97.1813 257.855 97.7431 257.855 98.492C257.855 99.6155 257.669 100.552 257.293 101.114C256.732 101.862 255.983 102.237 255.047 102.611C255.42 102.986 255.607 103.36 255.983 103.922C256.543 104.858 257.106 106.169 257.855 107.854L255.607 108.042C255.42 107.667 255.047 106.731 254.484 105.233C254.11 104.484 253.924 103.922 253.548 103.548C253.361 103.36 253.174 103.173 252.987 103.173C252.798 103.173 252.611 102.986 252.051 103.173H251.115L250.739 108.229ZM251.302 101.114H252.425C253.548 101.114 254.11 100.926 254.484 100.739C254.86 100.552 255.047 100.365 255.42 99.99C255.607 99.6155 255.796 99.241 255.607 98.8665C255.607 98.3048 255.42 98.1176 255.047 97.9303C254.86 97.7431 254.484 97.7431 253.924 97.7431L251.675 97.9303L251.302 101.114Z" fill="black"/>
<path d="M261.6 102.424C261.6 101.3 261.6 100.177 261.973 99.0532C262.349 97.5552 262.909 96.4317 263.846 95.4955C264.782 94.7465 265.718 94.1847 266.841 94.1847C268.153 93.9975 269.09 94.5592 270.026 95.3082C270.962 96.2445 271.336 97.3679 271.522 99.0532C271.711 100.551 271.522 101.862 270.962 103.173C270.399 104.483 269.839 105.42 269.09 105.981C268.34 106.543 267.404 106.918 266.468 107.105C265.345 107.105 264.222 106.918 263.472 105.981C262.16 105.232 261.6 103.922 261.6 102.424ZM263.659 102.236C263.659 103.173 264.032 103.922 264.408 104.296C264.969 104.858 265.531 105.045 266.094 105.045C266.654 105.045 267.03 104.858 267.591 104.296C268.153 103.922 268.527 103.173 268.714 102.236C269.09 101.3 269.09 100.364 269.09 99.4277C269.09 98.4914 268.714 97.7424 268.153 97.1807C267.777 96.6189 267.217 96.4317 266.468 96.6189C265.905 96.6189 265.345 96.9934 264.969 97.3679C264.408 97.7424 264.032 98.4914 263.846 99.4277C263.659 100.177 263.472 101.113 263.659 102.236Z" fill="black"/>
<path d="M281.261 105.981L282.384 93.4353L285.942 93.248C286.878 93.248 287.625 93.248 288.001 93.248C288.561 93.4353 289.124 93.6225 289.498 94.1843C289.874 94.746 290.06 95.3078 290.06 96.0568C290.06 96.8057 290.06 97.3675 289.687 97.9292C289.311 98.491 288.937 98.8655 288.375 99.24C288.937 99.4272 289.311 99.6145 289.687 99.9889C290.06 100.363 290.247 100.925 290.247 101.487C290.247 102.236 290.247 102.985 289.874 103.734C289.498 104.483 289.124 104.857 288.561 105.232C288.001 105.606 287.252 105.794 286.129 105.794L281.261 105.981ZM283.507 103.734L285.566 103.547C286.315 103.547 286.878 103.359 287.252 103.172C287.625 102.985 287.814 102.798 288.001 102.423C288.188 102.049 288.188 101.674 288.188 101.3C288.188 100.925 288.001 100.551 287.625 100.363C287.438 100.176 286.878 99.9889 286.315 99.9889L283.88 100.176L283.507 103.734ZM284.069 98.3037L285.753 98.1165C286.502 98.1165 286.878 97.9292 287.252 97.742C287.625 97.5547 287.814 97.3675 288.001 97.1802C288.188 96.8057 288.188 96.6185 288.188 96.244C288.188 95.8695 288.001 95.6823 288.001 95.495C287.814 95.3078 287.625 95.1205 287.438 95.1205C287.252 95.1205 286.878 95.1205 286.129 95.1205L284.443 95.3078L284.069 98.3037Z" fill="black"/>
<path d="M300.359 101.674L296.238 102.049L295.115 104.857L292.869 105.045L297.737 92.1248L299.983 91.9375L302.605 104.296L300.546 104.483L300.359 101.674ZM299.983 99.6144L299.047 94.746L297.174 99.9889L299.983 99.6144Z" fill="black"/>
<path d="M308.785 103.735L306.726 103.922L307.849 91.3764L312.343 91.002C313.09 91.002 313.84 91.002 314.215 91.1892C314.589 91.3765 314.963 91.7509 315.338 92.1254C315.712 92.6872 315.899 93.2489 315.899 93.9977C315.899 95.1212 315.712 96.0574 315.338 96.6191C314.776 97.3681 314.026 97.7426 313.09 98.1171C313.466 98.4916 313.653 98.8661 314.026 99.4279C314.589 100.364 315.152 101.675 315.899 103.36L313.653 103.547C313.466 103.173 313.09 102.237 312.53 100.739C312.154 99.9896 311.967 99.4278 311.594 99.0534C311.407 98.8661 311.218 98.6789 311.031 98.6789C310.844 98.6789 310.657 98.4916 310.095 98.6789H309.158L308.785 103.735ZM309.345 96.8064H310.471C311.594 96.8064 312.154 96.6191 312.53 96.4319C312.903 96.2446 313.09 96.0574 313.466 95.6829C313.653 95.3086 313.84 94.9339 313.653 94.5594C313.653 93.9979 313.466 93.8107 313.09 93.6234C312.903 93.4362 312.53 93.4359 311.967 93.4359L309.721 93.6234L309.345 96.8064Z" fill="black"/>
</svg>
