<svg id="Слой_1" data-name="Слой 1" xmlns="http://www.w3.org/2000/svg" viewBox="0 0 22.84 22.82"><defs><style>.cls-1,.cls-3,.cls-4{fill:none;}.cls-1,.cls-3{stroke:#f46300;stroke-miterlimit:10;}.cls-1{stroke-width:1.35px;}.cls-2{fill:#f46300;}.cls-3{stroke-width:0.56px;}</style></defs><title>Play-orange</title><ellipse class="cls-1" cx="11.42" cy="11.41" rx="10.63" ry="10.48"/><path class="cls-2" d="M16.49,12,9.08,16.26a.68.68,0,0,1-1-.59V7.12a.68.68,0,0,1,1-.58l7.41,4.28a.68.68,0,0,1,0,1.17"/><path class="cls-3" d="M16.49,12,9.08,16.26a.68.68,0,0,1-1-.59V7.12a.68.68,0,0,1,1-.58l7.41,4.28A.68.68,0,0,1,16.49,12Z"/><rect class="cls-4" width="22.84" height="22.82"/></svg>