<svg width="24" height="24" viewBox="0 0 24 24" fill="none" xmlns="http://www.w3.org/2000/svg">
<g clip-path="url(#clip0)">
<path d="M16.5521 15.54C12.5581 13.6942 6.96773 14.5106 6.73177 14.5462C6.20565 14.6257 5.84355 15.1165 5.92306 15.6426C6.00257 16.1687 6.49376 16.5304 7.0195 16.4513C7.07165 16.4434 12.2688 15.6829 15.7437 17.2889C15.8745 17.3494 16.0121 17.3781 16.1473 17.3781C16.5113 17.378 16.8597 17.1708 17.0224 16.8187C17.2456 16.3357 17.035 15.7632 16.5521 15.54Z" fill="#645243"/>
<path d="M17.678 12.0695C13.1421 9.97335 6.78129 10.9023 6.5127 10.9427C5.98684 11.0223 5.625 11.5128 5.70425 12.0387C5.78337 12.5647 6.2743 12.927 6.80004 12.848C6.86016 12.8389 12.8636 11.9673 16.8697 13.8186C17.0007 13.8791 17.138 13.9077 17.2732 13.9077C17.6373 13.9076 17.9856 13.7004 18.1485 13.3482C18.3716 12.8652 18.1609 12.2927 17.678 12.0695Z" fill="#645243"/>
<path d="M18.4312 8.44422C13.421 6.12867 6.38403 7.15614 6.08692 7.20096C5.56106 7.28047 5.19921 7.77102 5.27847 8.29689C5.35772 8.82276 5.84878 9.18562 6.37426 9.10611C6.44144 9.09597 13.1424 8.12258 17.6229 10.1932C17.7537 10.2537 17.8912 10.2823 18.0265 10.2823C18.3905 10.2823 18.7389 10.075 18.9016 9.72293C19.1249 9.23983 18.9142 8.66746 18.4312 8.44422Z" fill="#645243"/>
<path d="M12.0001 0C5.38316 0 0 5.38303 0 11.9996C0 18.6165 5.38316 23.9997 12.0001 23.9997C18.6168 23.9997 24 18.6165 24 11.9996C24 5.38303 18.6168 0 12.0001 0ZM12.0001 22.073C6.44556 22.073 1.92673 17.5542 1.92673 11.9996C1.92673 6.4453 6.44556 1.9266 12.0001 1.9266C17.5544 1.9266 22.0733 6.4453 22.0733 11.9996C22.0733 17.5542 17.5544 22.073 12.0001 22.073Z" fill="#645243"/>
</g>
<defs>
<clipPath id="clip0">
<rect width="24" height="24" fill="white"/>
</clipPath>
</defs>
</svg>
