<svg width="29" height="28" viewBox="0 0 29 28" fill="none" xmlns="http://www.w3.org/2000/svg">
<path d="M16.7915 2.30669C16.7915 1.43148 15.7467 0.978542 15.1079 1.57682L8.53826 7.72987C8.35295 7.90343 8.10856 8 7.85467 8H2.4165C1.86422 8 1.4165 8.44772 1.4165 9V19C1.4165 19.5523 1.86422 20 2.4165 20H7.85467C8.10856 20 8.35295 20.0966 8.53826 20.2701L15.1079 26.4232C15.7467 27.0215 16.7915 26.5685 16.7915 25.6933V2.30669Z" stroke="#B0B0B0" stroke-width="2.5" stroke-linecap="round" stroke-linejoin="round"/>
<path d="M24.5474 6.91992C26.1487 8.7952 27.0482 11.3383 27.0482 13.9899C27.0482 16.6416 26.1487 19.1846 24.5474 21.0599" stroke="#B0B0B0" stroke-width="2.5" stroke-linecap="round" stroke-linejoin="round"/>
</svg>
