<svg width="36" height="29" viewBox="0 0 36 29" fill="none" xmlns="http://www.w3.org/2000/svg">
<path d="M16.5109 2.90199C16.5109 2.02501 15.4624 1.5728 14.8246 2.17467L8.32159 8.31082C8.13599 8.48595 7.89047 8.5835 7.63529 8.5835H2.25C1.69772 8.5835 1.25 9.03121 1.25 9.5835V19.5835C1.25 20.1358 1.69772 20.5835 2.25 20.5835H7.63529C7.89047 20.5835 8.13599 20.681 8.32159 20.8562L14.8246 26.9923C15.4624 27.5942 16.5109 27.142 16.5109 26.265V2.90199Z" stroke="#B0B0B0" stroke-width="2.5" stroke-linecap="round" stroke-linejoin="round"/>
<path d="M24.209 7.50293C25.7984 9.37821 26.6913 11.9213 26.6913 14.5729C26.6913 17.2246 25.7984 19.7677 24.209 21.6429" stroke="#B0B0B0" stroke-width="2.5" stroke-linecap="round" stroke-linejoin="round"/>
<path d="M29.834 2.06152C32.9361 5.38284 34.6787 9.88692 34.6787 14.5833C34.6787 19.2796 32.9361 23.7837 29.834 27.105" stroke="#B0B0B0" stroke-width="2.5" stroke-linecap="round" stroke-linejoin="round"/>
</svg>
