<svg id="Слой_1" data-name="Слой 1" xmlns="http://www.w3.org/2000/svg" viewBox="0 0 528.21 98.02"><title>Монтажная область 11</title><path d="M51.51,0c24.26,0,47.72,16.42,47.4,42l-33.52.38c0-12.22-6-15.66-15.78-15.66-9,0-12.89,8.2-12.89,23.12,0,12.93,5.71,21.72,14,21.72,7.4,0,14.73-7,15.05-15.85l33.44.48c0,17.91-24.1,41.89-48,41.89C19.72,98,0,79.9,0,49.93,0,20.49,20.5,0,51.51,0Z"/><path d="M161.52,98h-5.45V69H140.74c-20.44,0-38.36-11.89-38.36-34.15S120.3,0,140.74,0h21.08Zm-5.45-54V26h-8.33c-6.16,0-9.66,3.75-9.66,8.93s3.5,9.07,9.66,9.07Z"/><path d="M252.07,0h79V27h-44V37h36V60h-36V71h44V98h-79Z"/><path d="M337.07,0h53.49C411,0,428.92,12.73,428.92,34.85S411,69,390.55,69H373.07V98h-36Zm46.49,44c6.16,0,9.66-3.89,9.66-9.07S389.72,26,383.56,26H373.07V44Z"/><path d="M485.51,83H454.57l-4.2,15H414.81L446.45,0h49.7l32.06,98H489.43Zm-6.58-26-.42-1.28c-1.54-5.88-2.38-13.91-2.38-24q0-6.72.42-15.73H465.07c.14,3,.28,6.06.28,9a122.1,122.1,0,0,1-3.5,30.63L461.43,57Z"/><path d="M210.48,0H157.07V98h36V69h17.41c20.44,0,38.36-12,38.36-34.15S230.92,0,210.48,0ZM169.14,66.94l.24-1.42a206.33,206.33,0,0,0,2-30.56c0-2.91-.08-5-.16-9h6.66c-.16,6-.24,11.28-.24,15.74a167,167,0,0,0,1.38,24l.24,1.3ZM203.48,44H193.07V26h10.41c6.16,0,9.66,3.75,9.66,8.93S209.64,44,203.48,44Z"/></svg>