<svg width="155" height="158" viewBox="0 0 155 158" fill="none" xmlns="http://www.w3.org/2000/svg">
<g clip-path="url(#clip0)">
<path d="M60.0303 4.83703C75.2786 1.41358 91.1191 3.27415 105.109 10.1211C105.701 10.4188 106.367 10.3443 106.886 9.8978C107.7 9.15357 107.478 7.81395 106.516 7.29299C91.8594 0.073964 75.2786 -1.86103 59.3641 1.78569C58.4019 2.00896 57.8837 2.97646 58.2538 3.86954C58.5499 4.61377 59.2901 4.98588 60.0303 4.83703Z" fill="black"/>
<path d="M37.7503 23.9638C39.3047 23.7406 40.7851 23.1452 42.0435 22.3265C43.3759 21.4335 44.4122 20.3171 45.0784 18.9775C45.5225 18.1588 45.8186 17.2658 45.9666 16.3727L46.3367 16.8937C46.8549 17.7123 47.8912 17.8612 48.7054 17.3402C49.5196 16.8192 49.6677 15.7773 49.1495 14.9587L40.341 1.71137C39.8229 0.892716 38.7866 0.74387 37.9723 1.26483C37.1581 1.78579 37.0101 2.82771 37.5282 3.64637L37.8243 4.0929C36.936 3.86964 36.0478 3.79521 35.0855 3.86964C33.6051 4.01848 32.1247 4.61387 30.7923 5.50694C29.608 6.32559 28.6457 7.36752 27.8315 8.63271C27.0172 9.8979 26.4991 11.5352 26.203 13.4702C26.055 14.0656 26.129 14.9587 26.351 16.075C26.6471 17.4146 27.0912 18.531 27.7574 19.5729C28.4976 20.6148 29.3859 21.5823 30.4962 22.401C31.3845 23.0708 32.1247 23.4429 32.7909 23.6661C34.4934 24.1127 36.1958 24.1871 37.7503 23.9638ZM35.0855 20.5404C33.235 20.2427 31.8286 19.3496 30.7923 17.7867C29.756 16.2239 29.4599 14.5865 29.83 12.726C30.2001 10.8654 31.1624 9.45136 32.7168 8.40944C34.2713 7.36752 35.8998 6.9954 37.6763 7.44194C39.4528 7.81405 40.8592 8.78155 41.8955 10.3444C42.8577 11.8329 43.1538 13.4702 42.7837 15.2564C42.4136 17.0425 41.5253 18.4565 40.0449 19.424C38.6385 20.466 36.936 20.8381 35.0855 20.5404Z" fill="black"/>
<path d="M109.698 29.769C110.291 30.4388 111.401 30.5132 112.067 29.8434L117.174 25.0804C117.1 25.899 117.174 26.7921 117.471 27.7596C117.841 29.1736 118.581 30.5132 119.617 31.5552C121.542 33.639 123.91 34.8298 126.649 35.053C129.462 35.2763 131.905 34.3832 133.977 32.5227C134.94 31.6296 135.754 30.5877 136.272 29.4713C136.716 28.5038 137.012 27.6852 137.086 26.9409C137.086 26.7921 137.086 26.6432 137.086 26.4944C137.234 24.7082 137.086 23.1454 136.642 21.8057C136.198 20.4661 135.458 19.2754 134.495 18.159C133.533 17.0427 132.275 16.224 130.794 15.5542C129.832 15.1821 128.944 14.9588 128.056 14.8844L128.426 14.5867C129.092 13.9913 129.166 12.875 128.5 12.2052C127.908 11.5354 126.797 11.4609 126.131 12.1308L109.698 27.313C109.032 27.9084 108.958 29.0248 109.624 29.6946L109.698 29.769ZM120.357 24.4105C120.357 24.2617 120.357 24.1129 120.357 23.964C120.431 23.2198 120.653 22.55 120.95 21.9546C121.32 21.2848 121.838 20.5406 122.652 19.8707C124.058 18.6056 125.539 18.0846 127.389 18.159C129.24 18.3079 130.72 19.0521 131.979 20.4661C133.237 21.8802 133.829 23.443 133.755 25.3036C133.681 27.1642 132.941 28.6527 131.609 29.9178C130.202 31.183 128.648 31.7784 126.797 31.6296C124.947 31.4807 123.466 30.7365 122.134 29.3225C120.801 27.9829 120.209 26.3455 120.357 24.4105Z" fill="black"/>
<path d="M127.76 42.2725C128.204 43.0912 129.314 43.3889 130.129 42.9423L143.822 35.1279C144.637 34.6814 144.933 33.565 144.489 32.7464C144.044 31.9277 142.934 31.63 142.12 32.0766L128.426 39.891C127.538 40.3375 127.242 41.4539 127.76 42.2725Z" fill="black"/>
<path d="M147.524 47.4808C147.746 48.0761 147.228 48.5971 146.636 48.4483L133.164 44.7271C132.72 44.5783 132.276 44.6527 131.831 44.8015C130.721 45.2481 130.129 46.4388 130.573 47.6296L134.274 57.7511C134.57 58.5698 135.533 59.0163 136.347 58.7186C137.161 58.4209 137.605 57.4534 137.309 56.6348L135.088 50.5321C134.866 49.8623 135.459 49.1925 136.199 49.3413L149.3 52.9136C149.745 53.0625 150.263 52.9881 150.707 52.8392C151.817 52.3927 152.409 51.1275 152.039 49.9367L148.708 40.7827C148.412 39.964 147.45 39.5175 146.636 39.8152C145.821 40.1129 145.377 41.0804 145.673 41.899L147.524 47.4808Z" fill="black"/>
<path d="M154.186 60.4316C154.112 59.5385 153.297 58.8687 152.409 58.9431C151.521 59.0176 150.855 59.8362 150.929 60.7293L151.447 66.6831C151.521 67.2785 150.855 67.7251 150.337 67.4274L138.345 60.2083C137.975 59.9851 137.531 59.8362 137.087 59.9107C135.903 59.9851 135.014 61.027 135.088 62.2922L135.977 73.0835C136.051 73.9766 136.865 74.6464 137.753 74.572C138.641 74.4976 139.307 73.6789 139.233 72.7858L138.715 66.2366C138.641 65.4924 139.456 65.0458 140.048 65.418L151.743 72.3393C152.113 72.5626 152.631 72.7114 153.075 72.637C154.26 72.4881 155.222 71.4462 155.074 70.181L154.186 60.4316Z" fill="black"/>
<path d="M151.372 79.9294C151.076 79.4085 150.41 78.8131 149.448 78.1433C148.337 77.399 147.153 76.8781 146.043 76.6548C144.784 76.3571 143.452 76.3571 142.12 76.506C141.009 76.6548 140.195 76.8781 139.603 77.2502C138.049 78.1433 136.79 79.2596 135.828 80.5248C134.866 81.79 134.199 83.204 133.903 84.6925C133.533 86.2554 133.607 87.7438 133.977 89.2323C134.199 90.1254 134.644 90.944 135.162 91.6883L134.57 91.5394C133.681 91.3161 132.719 91.9115 132.571 92.879C132.349 93.7721 132.941 94.7396 133.903 94.8884L149.374 98.2375C150.262 98.4607 151.224 97.8654 151.372 96.8979C151.594 96.0048 151.002 95.0373 150.04 94.8884L149.448 94.7396C150.262 94.2931 150.928 93.6977 151.52 92.9534C152.483 91.7627 153.149 90.3486 153.445 88.7858C153.519 88.4136 153.593 88.0415 153.593 87.7438C153.667 86.7019 153.667 85.5856 153.371 84.5437C153.223 83.1296 152.483 81.5667 151.372 79.9294ZM150.262 88.116C149.892 89.9765 148.93 91.3161 147.375 92.3581C145.821 93.3256 144.192 93.6233 142.342 93.2511C140.639 92.879 139.307 91.9115 138.271 90.3486C137.382 89.009 137.086 87.6694 137.234 86.181C137.234 85.9577 137.308 85.66 137.382 85.4367C137.752 83.5762 138.715 82.1621 140.269 81.1202C141.824 80.0783 143.452 79.7062 145.229 80.0783C147.079 80.4504 148.412 81.4179 149.448 83.0552C150.336 84.6181 150.632 86.3298 150.262 88.116Z" fill="black"/>
<path d="M138.271 118.927C137.53 118.258 136.642 117.811 135.68 117.588C135.162 117.513 134.57 117.439 133.829 117.439H133.755V117.364C134.051 116.025 134.051 114.834 133.903 113.718C133.607 111.783 132.645 110.22 131.091 109.178C129.758 108.285 128.056 107.838 126.427 107.987C124.503 108.136 122.874 108.955 121.616 110.443C120.506 111.708 119.913 113.197 119.839 114.76C119.765 115.876 119.987 117.067 120.432 118.406V118.481H120.358L115.324 118.853C114.436 118.927 113.844 119.672 113.844 120.49C113.844 120.937 114.066 121.383 114.362 121.681C114.732 121.979 115.102 122.128 115.546 122.128L121.542 121.681L123.837 127.635C124.059 128.156 124.503 128.528 125.095 128.677C125.687 128.751 126.205 128.602 126.575 128.156C126.945 127.709 127.094 127.039 126.871 126.444L124.873 121.383H124.947L128.944 121.086V121.16C128.648 122.128 128.574 123.021 128.648 123.839C128.722 125.253 129.314 126.37 130.276 127.263C131.461 128.305 132.867 128.826 134.496 128.677C136.05 128.528 137.382 127.858 138.419 126.593C139.233 125.7 139.677 124.584 139.825 123.393C139.825 123.169 139.825 122.946 139.825 122.649C139.973 121.16 139.381 119.82 138.271 118.927ZM130.424 117.067L130.276 117.662H130.202L123.837 118.109V118.034C123.318 116.546 123.022 115.355 123.17 114.462C123.244 113.718 123.615 113.048 124.133 112.378C124.799 111.634 125.613 111.187 126.723 111.187C127.834 111.113 128.722 111.411 129.462 112.155C130.128 112.75 130.498 113.494 130.647 114.388C130.795 115.057 130.721 115.95 130.424 117.067ZM136.05 124.584C135.606 125.03 135.088 125.328 134.422 125.402C134.274 125.402 134.2 125.402 134.051 125.402C133.533 125.402 133.163 125.253 132.793 124.956C132.275 124.509 132.053 123.839 132.127 122.946C132.127 122.351 132.349 121.607 132.571 120.862C133.385 120.788 133.977 120.788 134.274 120.788C135.014 120.788 135.532 121.011 135.902 121.309C136.42 121.755 136.642 122.276 136.642 122.872C136.716 123.467 136.494 124.063 136.05 124.584Z" fill="black"/>
<path d="M102.519 128.157C102.075 127.561 101.334 127.412 100.594 127.636L99.5578 128.008C98.8176 128.231 98.3735 128.975 98.3735 129.72L98.5215 137.534C98.5215 138.278 97.6332 138.576 97.1891 137.98L92.5258 131.654C92.0817 131.059 91.2674 130.761 90.6013 131.059L89.565 131.431C88.8988 131.655 88.3806 132.324 88.3806 132.994L87.7885 149.963C87.7144 151.153 88.8988 152.046 90.0831 151.674C90.7493 151.451 91.2674 150.781 91.2674 150.111L91.7116 138.204C91.7116 137.459 92.6738 137.236 93.0439 137.757L98.4475 145.051C98.9656 145.72 99.8539 146.018 100.594 145.72C101.408 145.423 101.926 144.679 101.926 143.86L101.778 134.855C101.778 134.11 102.667 133.813 103.111 134.334L110.587 143.488C111.031 144.083 111.845 144.306 112.511 144.009C113.696 143.637 114.066 142.148 113.252 141.255L102.519 128.157Z" fill="black"/>
<path d="M73.2806 133.216H73.1325C72.2443 133.067 71.356 133.737 71.208 134.63L69.9496 143.04C69.8016 144.007 69.6535 144.826 69.4315 145.421C69.2094 146.017 68.9133 146.538 68.4692 146.984C67.9511 147.58 67.2849 147.952 66.5447 148.175C65.8044 148.398 64.9902 148.473 64.176 148.324C62.3255 148.026 61.0671 147.133 60.2529 145.57C60.0308 145.049 59.8087 144.528 59.7347 144.007C59.6607 143.412 59.7347 142.593 59.8828 141.403L61.1411 132.993C61.2892 132.1 60.623 131.207 59.7347 131.058H59.5867C58.6984 130.909 57.8102 131.579 57.6621 132.472L56.4038 140.882C56.1817 142.221 56.1077 143.338 56.2557 144.231C56.4038 145.347 56.6999 146.463 57.292 147.431C57.9582 148.622 58.9205 149.589 60.0308 150.259C61.1411 151.003 62.3255 151.45 63.6578 151.599C65.6564 151.896 67.4329 151.45 69.0614 150.259C68.9133 151.152 69.5795 152.045 70.4678 152.194C71.356 152.343 72.2443 151.673 72.3923 150.78L74.761 135.002C74.835 134.258 74.2428 133.365 73.2806 133.216Z" fill="black"/>
<path d="M48.1133 125.849C46.2628 124.882 44.2642 124.584 42.1916 124.882C41.2293 125.031 40.3411 125.254 39.5269 125.626C38.2685 126.222 38.1205 127.933 39.3048 128.678C39.8229 128.975 40.4151 128.975 40.9332 128.752C41.5994 128.454 42.2656 128.305 43.0799 128.231C44.4122 128.157 45.5966 128.38 46.7809 128.975C48.1873 129.719 49.2236 130.91 49.8898 132.548C50.482 133.962 50.482 135.301 50.0378 136.566L38.8607 130.836C36.7881 129.794 34.2714 130.91 33.8272 133.217C33.6052 134.408 33.6052 135.673 33.9013 136.938C34.1973 138.427 34.8635 139.841 35.7518 140.957C36.64 142.148 37.7503 143.116 39.0827 143.785C41.5994 145.051 44.1902 145.274 46.7809 144.381C49.3716 143.488 51.2962 141.85 52.5545 139.32C53.1467 138.129 53.5168 136.938 53.6649 135.673C53.8129 134.334 53.6649 132.92 53.1467 131.58C52.2585 129.05 50.556 127.115 48.1133 125.849ZM45.0784 141.329C43.524 141.702 42.0436 141.478 40.5631 140.734C39.1567 139.99 38.1945 138.948 37.5283 137.459C37.0101 136.194 36.9361 135.227 36.9361 134.557C36.9361 134.11 37.4543 133.813 37.8244 134.036L48.3354 139.469C47.5211 140.436 46.4108 141.032 45.0784 141.329Z" fill="black"/>
<path d="M150.093 31.0032C150.215 29.7761 149.324 28.6825 148.103 28.5606C146.883 28.4386 145.795 29.3344 145.674 30.5615C145.552 31.7885 146.443 32.8821 147.664 33.0041C148.884 33.126 149.972 32.2302 150.093 31.0032Z" fill="black"/>
<path d="M80.6828 132.621C79.7205 132.621 78.9803 133.365 78.9803 134.333L78.9062 150.334C78.9062 151.301 79.6465 152.046 80.6087 152.046H80.7568C81.7191 152.046 82.4593 151.301 82.4593 150.334L82.5333 134.333C82.5333 133.365 81.7931 132.621 80.8308 132.621H80.6828Z" fill="black"/>
<path d="M82.8623 156.159C83.0773 154.945 82.2728 153.786 81.0653 153.569C79.8579 153.353 78.7049 154.162 78.4899 155.376C78.2749 156.59 79.0794 157.749 80.2868 157.966C81.4942 158.182 82.6473 157.373 82.8623 156.159Z" fill="black"/>
<path d="M31.3107 26.9411L15.1001 22.3268C13.5457 21.8803 12.2873 23.5176 13.0275 24.9316L21.3919 39.6674C21.91 40.5605 23.0204 40.7837 23.8346 40.1884C24.5748 39.6674 24.7228 38.6255 24.2787 37.8812L18.5051 27.6109C18.283 27.2388 18.6531 26.8666 19.0232 26.9411L30.4225 30.2157C31.0887 30.4389 31.8289 30.1413 32.199 29.6203C32.421 29.3226 32.5691 29.0249 32.5691 28.6528C32.6431 27.9086 32.0509 27.1643 31.3107 26.9411Z" fill="black"/>
<path d="M27.5355 111.932L23.0202 117.216C22.8721 117.067 22.7241 116.918 22.576 116.695C14.2857 106.871 8.88216 94.8144 7.03164 81.7159C5.8473 73.3805 6.21741 65.1196 7.99391 57.2307H8.06793C10.2886 57.8261 12.5832 57.5284 14.8038 56.2632C17.0985 54.9236 18.6529 52.9886 19.5412 50.5327C19.7633 49.7884 19.9853 49.0442 20.0593 48.3C20.2074 46.4394 19.9113 44.6532 18.949 42.8671C17.6907 40.4111 15.6921 38.6994 13.1014 37.8063C10.5846 36.9133 8.06793 37.1365 5.55122 38.4017C3.03451 39.6669 1.40604 41.6019 0.517792 44.1323C-0.296439 46.5138 -0.222418 48.8954 0.739855 51.2025C1.62811 53.3607 3.10853 54.998 5.03307 56.1888H5.10709C3.55265 63.1102 2.96048 70.1803 3.47863 77.3994C3.47863 77.5482 3.47863 77.6226 3.47863 77.7715C4.66297 93.3259 10.8067 108.136 21.0216 119.82L17.0985 124.435C16.5063 125.179 16.5803 126.221 17.2465 126.816C17.5426 127.114 17.9867 127.263 18.3569 127.263C18.801 127.263 19.3191 127.04 19.6152 126.667L30.0522 114.388C30.6443 113.643 30.5703 112.601 29.9041 112.006C29.2379 111.187 28.2016 111.262 27.5355 111.932ZM4.14482 50.0861C3.55265 48.9698 3.33059 47.779 3.47863 46.5882C3.55265 46.0673 3.62667 45.5463 3.84874 45.0254C4.36688 43.3881 5.4772 42.1973 7.03164 41.3786C7.84587 40.9321 8.73412 40.7088 9.47433 40.6344C10.2886 40.56 11.1028 40.7088 12.0651 41.0065C13.8416 41.6019 15.1739 42.7183 15.9882 44.2811C16.8764 45.9184 16.9505 47.5557 16.3583 49.2675C15.7661 51.0536 14.6558 52.2444 13.0273 53.063C11.3989 53.8817 9.77042 53.9561 8.06793 53.3607C6.29143 52.8398 4.95905 51.7234 4.14482 50.0861Z" fill="black"/>
</g>
<defs>
<clipPath id="clip0">
<rect width="155" height="158" fill="white"/>
</clipPath>
</defs>
</svg>
